<?xml version="1.0" encoding="UTF-8"?>
<svg width="14px" height="12px" viewBox="0 0 14 12" version="1.1" xmlns="http://www.w3.org/2000/svg" xmlns:xlink="http://www.w3.org/1999/xlink">
    <!-- Generator: Sketch 60 (88103) - https://sketch.com -->
    <title>导出</title>
    <desc>Created with Sketch.</desc>
    <g id="houtai" stroke="none" stroke-width="1" fill="none" fill-rule="evenodd">
        <g id="1-通用列表" transform="translate(-1759.000000, -90.000000)" fill="#999999" fill-rule="nonzero">
            <g id="new" transform="translate(80.000000, 80.000000)">
                <g id="Group-18" transform="translate(1605.000000, 7.000000)">
                    <g id="Group-16" transform="translate(74.000000, 0.000000)">
                        <g id="导出" transform="translate(0.000000, 3.000000)">
                            <path d="M1.07773935,5.95488917 L1.07773935,10.8341806 L12.3318001,10.8341806 L12.3318001,5.95488917 C12.3318001,5.65762692 12.5727527,5.41667426 12.870015,5.41667426 C13.1672772,5.41667426 13.4082299,5.65762692 13.4082299,5.95488917 L13.4082299,10.8341806 C13.4082299,11.4287051 12.9263246,11.9119199 12.3304905,11.9119199 L1.07773935,11.9119199 C0.481905323,11.9119199 0,11.4287051 0,10.8341806 L0,5.95488917 C0,5.65762692 0.240952661,5.41667426 0.538214912,5.41667426 C0.835477163,5.41667426 1.07773935,5.65762692 1.07773935,5.95488917 Z M6.69691255,8.35965503 C6.3996503,8.35965503 6.15869764,8.11870237 6.15869764,7.82144012 L6.15869764,1.26012087 L7.23643699,1.26012087 L7.23643699,7.82144012 C7.23512747,8.11870237 6.99417481,8.35965503 6.69691255,8.35965503 Z M6.76500787,1.61238318 L4.56238626,3.81369527 C4.35679078,4.02845742 4.01500467,4.03500505 3.80024252,3.82940957 C3.58548036,3.6238141 3.57893274,3.28202798 3.78452821,3.06726583 L3.80024252,3.05155152 L6.76500787,0.0880956952 L9.7284637,3.05155152 C9.94322586,3.257147 9.94977348,3.59893311 9.74417801,3.81369527 C9.53858253,4.02845742 9.19679642,4.03500505 8.98203426,3.82940957 L8.96631996,3.81369527 L6.76500787,1.61238318 Z" id="Shape"></path>
                        </g>
                    </g>
                </g>
            </g>
        </g>
    </g>
</svg>