<?xml version="1.0" encoding="UTF-8"?>
<svg width="112px" height="36px" viewBox="0 0 112 36" version="1.1" xmlns="http://www.w3.org/2000/svg" xmlns:xlink="http://www.w3.org/1999/xlink">
    <!-- Generator: Sketch 55.2 (78181) - https://sketchapp.com -->
    <title>nav_logo</title>
    <desc>Created with Sketch.</desc>
    <defs>
        <path d="M9.32791398,0.609559322 C8.58365591,0.609559322 7.98090323,1.22033898 7.98090323,1.97450847 L7.98090323,1.97450847 C7.98090323,2.18074576 8.02606452,2.37844068 8.10855914,2.55355932 L8.10855914,2.55355932 C8.1248172,2.58223729 8.14227957,2.61335593 8.15612903,2.64569492 L8.15612903,2.64569492 C8.25849462,2.85498305 8.3427957,3.07830508 8.40541935,3.31322034 L8.40541935,3.31322034 C8.80404301,4.82216949 8.19647312,6.36467797 6.99939785,7.21098305 L6.99939785,7.21098305 C6.98976344,7.21647458 6.97892473,7.2219661 6.97049462,7.23111864 L6.97049462,7.23111864 C6.91690323,7.26833898 6.85969892,7.30311864 6.80369892,7.33972881 L6.80369892,7.33972881 C5.11406452,8.45816949 3.71286022,9.87498305 2.63501075,11.4778983 L2.63501075,11.4778983 C-0.534107527,16.1780339 -0.973075269,22.4902373 2.02382796,27.7468475 L2.02382796,27.7468475 C6.18649462,35.056678 15.4072258,37.5602034 22.6203871,33.3390508 L22.6203871,33.3390508 C29.7661075,29.1575593 32.2572043,19.9464407 28.2498925,12.668339 L28.2498925,12.668339 C27.9126882,12.088678 27.5538065,11.5267119 27.1774624,10.9848814 L27.1774624,10.9848814 C25.0512688,7.92488136 22.3349677,5.48420339 19.2784516,3.72935593 L19.2784516,3.72935593 C16.2725161,2.00562712 12.936,0.94820339 9.50916129,0.62359322 L9.50916129,0.62359322 C9.47544086,0.618101695 9.43810753,0.614440678 9.40498925,0.612610169 L9.40498925,0.612610169 C9.37849462,0.609559322 9.3532043,0.609559322 9.32791398,0.609559322 Z M13.4767312,14.8503051 C13.4935914,14.8448136 13.5110538,14.8387119 13.5249032,14.8332203 L13.5249032,14.8332203 C13.527914,14.8332203 13.5303226,14.8332203 13.5303226,14.8307797 L13.5303226,14.8307797 C13.9915699,14.6526102 14.4473978,14.4347797 14.8893763,14.176678 L14.8893763,14.176678 C15.6215914,13.7465085 16.2785376,13.2296949 16.8469677,12.6506441 L16.8469677,12.6506441 C17.0516989,12.4419661 17.2437849,12.2265763 17.4214194,12.0032542 L17.4214194,12.0032542 C17.4274409,11.9971525 17.4310538,11.9886102 17.4388817,11.9825085 L17.4388817,11.9825085 C17.464172,11.9544407 17.4870538,11.9257627 17.5069247,11.8995254 L17.5069247,11.8995254 C17.5093333,11.8940339 17.5123441,11.8909831 17.5153548,11.8885424 L17.5153548,11.8885424 C17.7616344,11.6157966 18.1150968,11.4461695 18.5089032,11.4461695 L18.5089032,11.4461695 C18.6756989,11.4461695 18.8346667,11.4778983 18.9815914,11.5322034 L18.9815914,11.5322034 L18.9978495,11.5413559 C19.0460215,11.5584407 19.0917849,11.5779661 19.1375484,11.6042034 L19.1375484,11.6042034 C19.1453763,11.6096949 19.1562151,11.6127458 19.1658495,11.6188475 L19.1658495,11.6188475 C20.7808172,12.4157288 22.188043,13.6915932 23.1526882,15.3866441 L23.1526882,15.3866441 C24.160086,17.1561356 24.5394409,19.1208814 24.3581935,21.0105763 L24.3581935,21.0105763 L24.3581935,21.0130169 C24.1859785,22.7849492 23.5260215,24.4946441 22.4283011,25.92 L22.4283011,25.92 C22.4283011,25.9224407 22.4252903,25.9254915 22.4192688,25.9285424 L22.4192688,25.9285424 C22.3861505,25.9804068 22.3464086,26.031661 22.3036559,26.0804746 L22.3036559,26.0804746 C22.244043,26.1579661 22.1790108,26.2324068 22.1115699,26.3044068 L22.1115699,26.3044068 C21.6780215,26.7571525 21.1204301,27.104339 20.4725161,27.2794576 L20.4725161,27.2794576 C18.5739355,27.795661 16.6211613,26.6509831 16.1117419,24.7271186 L16.1117419,24.7271186 C15.792,23.5195932 16.1147527,22.2894915 16.8728602,21.4151186 L16.8728602,21.4151186 C16.8788817,21.4053559 16.8873118,21.3974237 16.8951398,21.3864407 L16.8951398,21.3864407 C17.0824086,21.1533559 17.1926022,20.8555932 17.1926022,20.5322034 L17.1926022,20.5322034 C17.1926022,19.7774237 16.5898495,19.1666441 15.8449892,19.1666441 L15.8449892,19.1666441 C15.5619785,19.1666441 15.2994409,19.2551186 15.0814624,19.4070508 L15.0814624,19.4070508 C14.8628817,19.2551186 14.6003441,19.1666441 14.3149247,19.1666441 L14.3149247,19.1666441 C13.5700645,19.1666441 12.9673118,19.7774237 12.9673118,20.5322034 L12.9673118,20.5322034 C12.9673118,20.8501017 13.0750968,21.1423729 13.2563441,21.3748475 L13.2563441,21.3748475 C13.2786237,21.4035254 13.3015054,21.4322034 13.3237849,21.4547797 L13.3237849,21.4547797 C13.6579785,21.8507797 13.9096774,22.323661 14.0511828,22.8575593 L14.0511828,22.8575593 C14.56,24.7844746 13.4315699,26.7632542 11.5323871,27.2794576 L11.5323871,27.2794576 C10.228129,27.6321356 8.90098925,27.2080678 8.02907527,26.2812203 L8.02907527,26.2812203 C8.02004301,26.272678 8.01221505,26.2641356 8.00619355,26.2555932 L8.00619355,26.2555932 C7.90443011,26.1439322 7.80808602,26.0261695 7.72017204,25.9029153 L7.72017204,25.9029153 C7.70030108,25.876678 7.68404301,25.8510508 7.66417204,25.8254237 L7.66417204,25.8254237 C7.42873118,25.5130169 7.20834409,25.1798644 7.00963441,24.8302373 L7.00963441,24.8302373 C6.31956989,23.619661 5.92636559,22.323661 5.80172043,21.0191186 L5.80172043,21.0191186 L5.80172043,21.0160678 C5.62047312,19.1092881 6.01969892,17.1909153 6.93075269,15.5245424 L6.93075269,15.5245424 C7.03612903,15.332339 7.14873118,15.1401356 7.27036559,14.9534237 L7.27036559,14.9534237 C8.04352688,13.7434576 9.10451613,12.6994576 10.4196129,11.9282034 L10.4196129,11.9282034 C10.6129032,11.8165424 10.8086022,11.7103729 11.0036989,11.6157966 L11.0036989,11.6157966 C11.0482581,11.5901695 11.0964301,11.5669831 11.1446022,11.5468475 L11.1446022,11.5468475 C11.3005591,11.4809492 11.4733763,11.4461695 11.6516129,11.4461695 L11.6516129,11.4461695 C12.3103656,11.4461695 12.8595269,11.9257627 12.9733333,12.5591186 L12.9733333,12.5591186 C12.984172,12.6109831 12.9926022,12.6628475 12.9956129,12.7134915 L12.9956129,12.7134915 C12.9986237,12.7458305 12.9986237,12.78 12.9986237,12.8117288 L12.9986237,12.8117288 C12.9986237,12.8343051 12.9986237,12.8574915 12.9956129,12.8800678 L12.9956129,12.8800678 C13.0070538,13.3053559 12.9420215,13.723322 12.8083441,14.1132203 L12.8083441,14.1132203 C12.8029247,14.1309153 12.7944946,14.1455593 12.7926882,14.1650847 L12.7926882,14.1650847 C12.7722151,14.2193898 12.7607742,14.2773559 12.7607742,14.3402034 L12.7607742,14.3402034 C12.7607742,14.6410169 13.0016344,14.8844746 13.2984946,14.8844746 L13.2984946,14.8844746 C13.3496774,14.8844746 13.4002581,14.8759322 13.4484301,14.8594576 L13.4484301,14.8594576 C13.4502366,14.8594576 13.452043,14.8600678 13.4538495,14.8600678 L13.4538495,14.8600678 C13.4622796,14.8600678 13.4695054,14.8551864 13.4767312,14.8503051 L13.4767312,14.8503051 Z M12.867957,31.096678 C12.8625376,31.096678 12.8541075,31.0930169 12.8456774,31.0905763 L12.8456774,31.0905763 C12.7782366,31.0728814 12.704172,31.0557966 12.6397419,31.0362712 L12.6397419,31.0362712 C12.6337204,31.0362712 12.6276989,31.0332203 12.6246882,31.0332203 L12.6246882,31.0332203 C12.1074409,30.8440678 11.7341075,30.3394576 11.7341075,29.7482034 L11.7341075,29.7482034 C11.7341075,29.5791864 11.7648172,29.4126102 11.8244301,29.2637288 L11.8244301,29.2637288 C11.8467097,29.1947797 11.8774194,29.1288814 11.9147527,29.0684746 L11.9147527,29.0684746 C11.920172,29.0574915 11.9255914,29.0458983 11.9346237,29.0336949 L11.9346237,29.0336949 C11.940043,29.0227119 11.9460645,29.0111186 11.9514839,29.0025763 L11.9514839,29.0025763 C12.4012903,28.1623729 13.1768602,27.5058305 14.1583656,27.2391864 L14.1583656,27.2391864 C15.7805591,26.7974237 17.4418925,27.5662373 18.2084301,29.0025763 L18.2084301,29.0025763 C18.2168602,29.0166102 18.2258925,29.0312542 18.2337204,29.048339 L18.2337204,29.048339 C18.2397419,29.0574915 18.2457634,29.0684746 18.248172,29.0770169 L18.248172,29.0770169 C18.268043,29.1063051 18.2818925,29.1349831 18.2933333,29.1661017 L18.2933333,29.1661017 C18.3101935,29.1978305 18.3246452,29.2295593 18.3330753,29.260678 L18.3330753,29.260678 C18.3366882,29.2637288 18.3384946,29.2692203 18.3415054,29.275322 L18.3415054,29.275322 C18.3956989,29.4217627 18.4233978,29.5822373 18.4233978,29.7482034 L18.4233978,29.7482034 C18.4233978,30.3455593 18.0476559,30.8526102 17.5213763,31.0387119 L17.5213763,31.0387119 C17.5093333,31.0417627 17.5015054,31.0442034 17.4900645,31.0478644 L17.4900645,31.0478644 C17.4786237,31.0533559 17.4671828,31.0557966 17.4527312,31.0588475 L17.4527312,31.0588475 C17.4190108,31.0704407 17.3852903,31.0789831 17.3485591,31.0844746 L17.3485591,31.0844746 C16.6018925,31.2754576 15.8431828,31.3688136 15.0892903,31.3688136 L15.0892903,31.3688136 C14.3384086,31.3688136 13.5923441,31.276678 12.867957,31.096678 L12.867957,31.096678 Z" id="path-1"></path>
        <linearGradient x1="-0.00148481086%" y1="49.9993752%" x2="99.9999062%" y2="49.9993752%" id="linearGradient-3">
            <stop stop-color="#FF6700" offset="0%"></stop>
            <stop stop-color="#E94697" offset="100%"></stop>
        </linearGradient>
        <path d="M0.578064516,0.675457627 C0.40283871,0.907322034 0.300473118,1.19410169 0.300473118,1.51016949 L0.300473118,1.51016949 C0.300473118,1.53823729 0.30288172,1.56691525 0.308903226,1.59559322 L0.308903226,1.59559322 C0.348645161,1.78535593 0.513032258,1.92813559 0.714150538,1.92813559 L0.714150538,1.92813559 C0.942967742,1.92813559 1.12963441,1.7420339 1.12963441,1.51016949 L1.12963441,1.51016949 C1.12963441,1.20813559 1.37109677,0.964677966 1.66434409,0.964677966 L1.66434409,0.964677966 C1.96180645,0.964677966 2.20206452,1.20813559 2.20206452,1.51016949 L2.20206452,1.51016949 C2.20206452,1.7420339 2.38933333,1.92813559 2.61815054,1.92813559 L2.61815054,1.92813559 C2.81926882,1.92813559 2.98666667,1.78535593 3.02339785,1.59559322 L3.02339785,1.59559322 C3.02941935,1.56691525 3.03182796,1.53823729 3.03182796,1.51016949 L3.03182796,1.51016949 C3.03182796,1.04461017 2.80782796,0.635186441 2.4627957,0.385016949 L2.4627957,0.385016949 L2.45978495,0.385016949 C2.2363871,0.219050847 1.95939785,0.124474576 1.66434409,0.124474576 L1.66434409,0.124474576 C1.21995699,0.124474576 0.824344086,0.339864407 0.578064516,0.675457627" id="path-4"></path>
        <linearGradient x1="0.0078968254%" y1="50.0081664%" x2="99.9952249%" y2="50.0081664%" id="linearGradient-6">
            <stop stop-color="#FF6700" offset="0%"></stop>
            <stop stop-color="#E94697" offset="100%"></stop>
        </linearGradient>
        <path d="M0.0319139785,1.51016949 C0.0319139785,1.7420339 0.217978495,1.92813559 0.444387097,1.92813559 L0.444387097,1.92813559 C0.673806452,1.92813559 0.861075269,1.7420339 0.861075269,1.51016949 L0.861075269,1.51016949 C0.861075269,1.20813559 1.10133333,0.964677966 1.39819355,0.964677966 L1.39819355,0.964677966 C1.69625806,0.964677966 1.93651613,1.20813559 1.93651613,1.51016949 L1.93651613,1.51016949 C1.93651613,1.7420339 2.11956989,1.92813559 2.34898925,1.92813559 L2.34898925,1.92813559 C2.57901075,1.92813559 2.76567742,1.7420339 2.76567742,1.51016949 L2.76567742,1.51016949 C2.76567742,0.74379661 2.15148387,0.124474576 1.39819355,0.124474576 L1.39819355,0.124474576 C0.642494624,0.124474576 0.0319139785,0.74379661 0.0319139785,1.51016949" id="path-7"></path>
        <linearGradient x1="-0.0125726872%" y1="50.0081664%" x2="99.9902841%" y2="50.0081664%" id="linearGradient-9">
            <stop stop-color="#FF6700" offset="0%"></stop>
            <stop stop-color="#E94697" offset="100%"></stop>
        </linearGradient>
        <path d="M3.01376344,0.717559322 L0.599139785,3.16372881 C0.200516129,3.56827119 0.200516129,4.22237288 0.599139785,4.62691525 L0.599139785,4.62691525 C0.998365591,5.03023729 1.64387097,5.03023729 2.04249462,4.62691525 L2.04249462,4.62691525 L4.45651613,2.18013559 C4.85574194,1.77620339 4.85574194,1.12149153 4.45651613,0.717559322 L4.45651613,0.717559322 C4.2572043,0.514983051 3.99587097,0.414305085 3.73513978,0.414305085 L3.73513978,0.414305085 C3.47380645,0.414305085 3.21247312,0.514983051 3.01376344,0.717559322" id="path-10"></path>
        <linearGradient x1="-0.00138112774%" y1="49.9999581%" x2="99.9983837%" y2="49.9999581%" id="linearGradient-12">
            <stop stop-color="#FF6700" offset="0%"></stop>
            <stop stop-color="#E94697" offset="100%"></stop>
        </linearGradient>
        <path d="M2.70787097,1.59559322 L2.70787097,6.39701695 L2.70787097,13.5927458 C2.70787097,16.4764068 2.45797849,19.6797966 0.602150538,21.5755932 L0.602150538,21.5755932 C0.205333333,21.9813559 0.207741935,22.636678 0.608172043,23.0387797 L0.608172043,23.0387797 C0.807483871,23.2389153 1.0676129,23.3383729 1.32713978,23.3383729 L1.32713978,23.3383729 C1.58907527,23.3383729 1.85221505,23.2358644 2.05152688,23.032678 L2.05152688,23.032678 C4.4288172,20.6029831 4.74916129,16.8974237 4.74916129,13.5927458 L4.74916129,13.5927458 L4.74916129,1.59559322 C4.74916129,1.02386441 4.29273118,0.561355932 3.72911828,0.561355932 L3.72911828,0.561355932 C3.16550538,0.561355932 2.70787097,1.02386441 2.70787097,1.59559322" id="path-13"></path>
        <linearGradient x1="0.00689811485%" y1="49.9999727%" x2="100.007252%" y2="49.9999727%" id="linearGradient-15">
            <stop stop-color="#FF6700" offset="0%"></stop>
            <stop stop-color="#E94697" offset="100%"></stop>
        </linearGradient>
        <path d="M1.59208602,0.507050847 C1.02787097,0.507050847 0.57083871,0.970779661 0.57083871,1.54128814 L0.57083871,1.54128814 C0.57083871,2.11301695 1.02787097,2.57613559 1.59208602,2.57613559 L1.59208602,2.57613559 L4.44567742,2.57613559 L4.44567742,5.38657627 C2.23458065,5.86372881 0.57083871,7.85776271 0.57083871,10.2380339 L0.57083871,10.2380339 L0.57083871,17.895661 C0.57083871,18.4661695 1.02787097,18.9292881 1.59208602,18.9292881 L1.59208602,18.9292881 C2.15509677,18.9292881 2.61212903,18.4661695 2.61212903,17.895661 L2.61212903,17.895661 L2.61212903,10.2380339 C2.61212903,9.00732203 3.37445161,7.95538983 4.44567742,7.5380339 L4.44567742,7.5380339 L4.44567742,22.3041356 C4.44567742,22.8752542 4.90210753,23.3383729 5.46632258,23.3383729 L5.46632258,23.3383729 C6.02993548,23.3383729 6.48696774,22.8752542 6.48696774,22.3041356 L6.48696774,22.3041356 L6.48696774,7.5380339 C7.5575914,7.95538983 8.32051613,9.00732203 8.32051613,10.2380339 L8.32051613,10.2380339 L8.32051613,17.895661 C8.32051613,18.4661695 8.77694624,18.9292881 9.33995699,18.9292881 L9.33995699,18.9292881 C9.90417204,18.9292881 10.3612043,18.4661695 10.3612043,17.895661 L10.3612043,17.895661 L10.3612043,10.2380339 C10.3612043,7.85776271 8.69806452,5.86372881 6.48696774,5.38657627 L6.48696774,5.38657627 L6.48696774,2.57613559 L9.33995699,2.57613559 C9.90417204,2.57613559 10.3612043,2.11301695 10.3612043,1.54128814 L10.3612043,1.54128814 C10.3612043,0.970779661 9.90417204,0.507050847 9.33995699,0.507050847 L9.33995699,0.507050847 L1.59208602,0.507050847 Z" id="path-16"></path>
        <linearGradient x1="0.00195891506%" y1="50.0006091%" x2="100.001377%" y2="50.0006091%" id="linearGradient-18">
            <stop stop-color="#FF6700" offset="0%"></stop>
            <stop stop-color="#E94697" offset="100%"></stop>
        </linearGradient>
        <path d="M3.41058065,0.478372881 C1.65169892,0.478372881 0.220989247,1.92874576 0.220989247,3.71105085 L0.220989247,3.71105085 L0.220989247,20.1654915 C0.220989247,21.9471864 1.65169892,23.3975593 3.41058065,23.3975593 L3.41058065,23.3975593 L17.036043,23.3975593 C18.7949247,23.3975593 20.2262366,21.9471864 20.2262366,20.1654915 L20.2262366,20.1654915 L20.2262366,3.71105085 C20.2262366,1.92874576 18.7949247,0.478372881 17.036043,0.478372881 L17.036043,0.478372881 L3.41058065,0.478372881 Z M2.26227957,20.1654915 L2.26227957,3.71105085 C2.26227957,3.06915254 2.77711828,2.54745763 3.41058065,2.54745763 L3.41058065,2.54745763 L17.036043,2.54745763 C17.6689032,2.54745763 18.1843441,3.06915254 18.1843441,3.71105085 L18.1843441,3.71105085 L18.1843441,20.1654915 C18.1843441,20.8067797 17.6689032,21.3290847 17.036043,21.3290847 L17.036043,21.3290847 L3.41058065,21.3290847 C2.77711828,21.3290847 2.26227957,20.8067797 2.26227957,20.1654915 L2.26227957,20.1654915 Z" id="path-19"></path>
        <linearGradient x1="-0.000262468772%" y1="50.0007681%" x2="99.9984502%" y2="50.0007681%" id="linearGradient-21">
            <stop stop-color="#FF6700" offset="0%"></stop>
            <stop stop-color="#E94697" offset="100%"></stop>
        </linearGradient>
        <path d="M6.57126882,1.09098305 C6.56584946,1.11294915 6.28404301,2.23016949 5.86313978,3.57010169 L5.86313978,3.57010169 L5.24954839,3.57010169 L3.90193548,1.97084746 C3.5864086,1.59620339 3.04387097,1.56325424 2.68980645,1.89823729 L2.68980645,1.89823729 C2.33574194,2.23322034 2.30503226,2.808 2.62116129,3.18325424 L2.62116129,3.18325424 L2.94692473,3.57010169 L1.41686022,3.57010169 C0.941763441,3.57010169 0.556989247,3.97769492 0.556989247,4.48047458 L0.556989247,4.48047458 C0.556989247,4.98325424 0.941763441,5.39084746 1.41686022,5.39084746 L1.41686022,5.39084746 L5.23991398,5.39084746 C5.09298925,5.78013559 4.93944086,6.15538983 4.78348387,6.49830508 L4.78348387,6.49830508 L0.927311828,6.49830508 C0.452817204,6.49830508 0.0686451613,6.90589831 0.0686451613,7.4080678 L0.0686451613,7.4080678 C0.0686451613,7.91145763 0.452817204,8.31844068 0.927311828,8.31844068 L0.927311828,8.31844068 L3.73453763,8.31844068 C2.81625806,9.66630508 1.792,10.6779661 0.730408602,11.2765424 L0.730408602,11.2765424 C0.311311828,11.512678 0.152344086,12.063661 0.375139785,12.5072542 L0.375139785,12.5072542 C0.529290323,12.8153898 0.826752688,12.9905085 1.13445161,12.9905085 L1.13445161,12.9905085 C1.27053763,12.9905085 1.40843011,12.9557288 1.53668817,12.8837288 L1.53668817,12.8837288 C2.11776344,12.556678 2.6843871,12.1332203 3.23053763,11.624339 L3.23053763,11.624339 C3.21367742,11.7610169 3.20404301,11.9007458 3.20404301,12.0423051 L3.20404301,12.0423051 L3.20404301,14.2456271 C3.20404301,15.9632542 4.47819355,17.3599322 6.04378495,17.3599322 L6.04378495,17.3599322 L9.46460215,17.3599322 C11.1741075,17.3599322 12.6632258,16.1517966 13.167828,14.3536271 L13.167828,14.3536271 C13.3027097,13.8715932 13.0443871,13.3651525 12.5897634,13.2217627 L12.5897634,13.2217627 C12.1357419,13.0783729 11.6570323,13.3529492 11.5215484,13.8343729 L11.5215484,13.8343729 C11.2349247,14.8539661 10.4087742,15.5391864 9.46460215,15.5391864 L9.46460215,15.5391864 L6.04378495,15.5391864 C5.42537634,15.5391864 4.92197849,14.9589153 4.92197849,14.2456271 L4.92197849,14.2456271 L4.92197849,12.0423051 C4.92197849,11.3284068 5.42537634,10.7481356 6.04378495,10.7481356 L6.04378495,10.7481356 L8.59630108,10.7481356 C8.94193548,10.7481356 9.22374194,11.0818983 9.22374194,11.491322 L9.22374194,11.491322 C9.22374194,11.9757966 8.87449462,12.3864407 8.46021505,12.3864407 L8.46021505,12.3864407 L7.19208602,12.3864407 C6.7187957,12.3864407 6.33402151,12.7934237 6.33402151,13.2962034 L6.33402151,13.2962034 C6.33402151,13.7989831 6.7187957,14.2059661 7.19208602,14.2059661 L7.19208602,14.2059661 L8.46021505,14.2059661 C9.82890323,14.2059661 10.9410753,12.9880678 10.9410753,11.491322 L10.9410753,11.491322 C10.9410753,11.3491525 10.9302366,11.2106441 10.9097634,11.0745763 L10.9097634,11.0745763 C11.5137204,11.5858983 12.2585806,12.0722034 13.1744516,12.4669831 L13.1744516,12.4669831 C13.2810323,12.5133559 13.3900215,12.5347119 13.4978065,12.5347119 L13.4978065,12.5347119 C13.8374194,12.5347119 14.1583656,12.3205424 14.2938495,11.9672542 L14.2938495,11.9672542 C14.4732903,11.5023051 14.2613333,10.9702373 13.8217634,10.7810847 L13.8217634,10.7810847 C12.2363011,10.0970847 11.3017634,9.09884746 10.7736774,8.31844068 L10.7736774,8.31844068 L13.4984086,8.31844068 C13.9723011,8.31844068 14.3570753,7.91145763 14.3570753,7.4080678 L14.3570753,7.4080678 C14.3570753,6.90589831 13.9723011,6.49830508 13.4984086,6.49830508 L13.4984086,6.49830508 L9.3544086,6.49830508 L9.34597849,6.49830508 L6.6652043,6.49830508 C6.80972043,6.13769492 6.94821505,5.76366102 7.07948387,5.39084746 L7.07948387,5.39084746 L13.0094624,5.39084746 C13.4827527,5.39084746 13.8675269,4.98325424 13.8675269,4.48047458 L13.8675269,4.48047458 C13.8675269,3.97769492 13.4827527,3.57010169 13.0094624,3.57010169 L13.0094624,3.57010169 L11.5089032,3.57010169 L11.8292473,3.15213559 C12.1297204,2.76223729 12.0743226,2.18928814 11.7058065,1.87138983 L11.7058065,1.87138983 C11.3384946,1.55349153 10.7977634,1.61267797 10.4972903,2.00257627 L10.4972903,2.00257627 L9.29298925,3.57010169 L7.67019355,3.57010169 C8.00077419,2.47301695 8.21212903,1.63586441 8.23139785,1.55776271 L8.23139785,1.55776271 C8.35303226,1.07267797 8.08025806,0.574779661 7.62141935,0.444813559 L7.62141935,0.444813559 C7.54795699,0.424067797 7.47389247,0.414305085 7.40103226,0.414305085 L7.40103226,0.414305085 C7.02107527,0.414305085 6.67363441,0.683389831 6.57126882,1.09098305 M5.79630108,8.31844068 L8.78055914,8.31844068 C8.87088172,8.51430508 8.98890323,8.74433898 9.14064516,8.99877966 L9.14064516,8.99877966 C8.96662366,8.95301695 8.78417204,8.928 8.59630108,8.928 L8.59630108,8.928 L6.04378495,8.928 C5.81195699,8.928 5.58615054,8.95972881 5.36997849,9.01769492 L5.36997849,9.01769492 C5.51569892,8.7919322 5.6572043,8.55823729 5.79630108,8.31844068" id="path-22"></path>
        <linearGradient x1="-0.00254656513%" y1="50.0002902%" x2="99.9974922%" y2="50.0002902%" id="linearGradient-24">
            <stop stop-color="#FF6700" offset="0%"></stop>
            <stop stop-color="#E94697" offset="100%"></stop>
        </linearGradient>
        <path d="M5.46150538,1.64318644 L5.46150538,11.5242712 C5.46150538,13.748339 5.19475269,15.5465085 4.6455914,17.0212881 L4.6455914,17.0212881 C3.90313978,19.0177627 2.66692473,20.3930847 0.866494624,21.2265763 L0.866494624,21.2265763 C0.292043011,21.4926102 0.0385376344,22.179661 0.301075269,22.7623729 L0.301075269,22.7623729 C0.493763441,23.187661 0.908043011,23.439661 1.3415914,23.439661 L1.3415914,23.439661 C1.50055914,23.439661 1.66193548,23.4054915 1.81608602,23.3341017 L1.81608602,23.3341017 C4.16025806,22.2486102 5.83243011,20.3997966 6.78623656,17.8383051 L6.78623656,17.8383051 C7.43354839,16.0974915 7.74787097,14.0320678 7.74787097,11.5242712 L7.74787097,11.5242712 L7.74787097,1.64318644 C7.74787097,1.00311864 7.23604301,0.484474576 6.60498925,0.484474576 L6.60498925,0.484474576 C5.97273118,0.484474576 5.46150538,1.00311864 5.46150538,1.64318644" id="path-25"></path>
        <linearGradient x1="0.00305782165%" y1="49.9997004%" x2="100.001487%" y2="49.9997004%" id="linearGradient-27">
            <stop stop-color="#FF6700" offset="0%"></stop>
            <stop stop-color="#E94697" offset="100%"></stop>
        </linearGradient>
        <path d="M0.332989247,1.69810169 L0.332989247,18.6089492 C0.332989247,21.272339 2.47122581,23.4390508 5.09901075,23.4390508 L5.09901075,23.4390508 C7.93754839,23.4390508 10.2461935,21.099661 10.2461935,18.2239322 L10.2461935,18.2239322 L10.2461935,16.7369492 C10.2461935,16.0974915 9.73436559,15.5788475 9.10331183,15.5788475 L9.10331183,15.5788475 C8.47165591,15.5788475 7.95982796,16.0974915 7.95982796,16.7369492 L7.95982796,16.7369492 L7.95982796,18.2239322 C7.95982796,19.8219661 6.67664516,21.1222373 5.09901075,21.1222373 L5.09901075,21.1222373 C3.73273118,21.1222373 2.61935484,19.9952542 2.61935484,18.6089492 L2.61935484,18.6089492 L2.61935484,1.69810169 C2.61935484,1.0580339 2.10752688,0.54 1.47587097,0.54 L1.47587097,0.54 C0.844817204,0.54 0.332989247,1.0580339 0.332989247,1.69810169" id="path-28"></path>
        <linearGradient x1="0.000981595092%" y1="49.9993237%" x2="99.9999927%" y2="49.9993237%" id="linearGradient-30">
            <stop stop-color="#FF6700" offset="0%"></stop>
            <stop stop-color="#E94697" offset="100%"></stop>
        </linearGradient>
        <path d="M3.19862366,1.59559322 L3.19862366,4.27484746 L0.600946237,6.61423729 C0.180043011,6.99376271 0.142107527,7.64786441 0.516043011,8.07437288 L0.516043011,8.07437288 C0.717763441,8.30501695 0.998967742,8.42155932 1.27956989,8.42155932 L1.27956989,8.42155932 C1.52043011,8.42155932 1.76309677,8.33552542 1.9575914,8.16040678 L1.9575914,8.16040678 L4.89729032,5.51288136 C5.11466667,5.31640678 5.23931183,5.03511864 5.23931183,4.74040678 L5.23931183,4.74040678 L5.23931183,1.59559322 C5.23931183,1.02386441 4.78227957,0.561355932 4.21866667,0.561355932 L4.21866667,0.561355932 C3.65505376,0.561355932 3.19862366,1.02386441 3.19862366,1.59559322" id="path-31"></path>
        <linearGradient x1="0.000960160562%" y1="50.0006226%" x2="100.004223%" y2="50.0006226%" id="linearGradient-33">
            <stop stop-color="#FF6700" offset="0%"></stop>
            <stop stop-color="#E94697" offset="100%"></stop>
        </linearGradient>
        <path d="M3.54064516,0.502779661 L0.600946237,3.15030508 C0.180043011,3.52983051 0.142107527,4.1839322 0.516043011,4.61044068 L0.516043011,4.61044068 C0.890580645,5.03755932 1.53548387,5.07538983 1.9575914,4.69647458 L1.9575914,4.69647458 L3.19862366,3.57864407 L3.19862366,7.31532203 C3.19862366,11.3735593 1.95277419,12.7171525 0.734623656,13.4969492 L0.734623656,13.4969492 C0.25772043,13.8026441 0.115010753,14.4414915 0.416086022,14.9241356 L0.416086022,14.9241356 C0.610580645,15.2359322 0.94116129,15.4067797 1.28017204,15.4061711 L1.28017204,15.4061711 C1.46623656,15.4061711 1.65531183,15.3549153 1.82391398,15.2463051 L1.82391398,15.2463051 C4.18615054,13.7343051 5.23931183,11.2887458 5.23931183,7.31532203 L5.23931183,7.31532203 L5.23931183,1.27586441 C5.23931183,0.867661017 5.00387097,0.499118644 4.63716129,0.331932203 L4.63716129,0.331932203 C4.50288172,0.270915254 4.36017204,0.241016949 4.21866667,0.241016949 L4.21866667,0.241016949 C3.9735914,0.241016949 3.73092473,0.330711864 3.54064516,0.502779661" id="path-34"></path>
        <linearGradient x1="0.00500633709%" y1="50.0012705%" x2="100.004244%" y2="50.0012705%" id="linearGradient-36">
            <stop stop-color="#FF6700" offset="0%"></stop>
            <stop stop-color="#E94697" offset="100%"></stop>
        </linearGradient>
    </defs>
    <g id="Symbols" stroke="none" stroke-width="1" fill="none" fill-rule="evenodd">
        <g id="houtai/top-nav" transform="translate(-39.000000, -12.000000)">
            <g id="top">
                <g>
                    <g id="nav_logo" transform="translate(39.000000, 12.000000)">
                        <g id="Group-5" transform="translate(5.419355, 10.983905)" fill="#FFFFFF">
                            <path d="M12.9121548,18.2775051 C12.9031226,18.2463864 12.8892731,18.2146576 12.8724129,18.183539 C12.860972,18.1518102 12.8471226,18.1231322 12.8266495,18.0938441 C12.8242409,18.0859119 12.8188215,18.0743186 12.8128,18.0651661 C12.8043699,18.0480814 12.7959398,18.0340475 12.7875097,18.0194034 C12.020972,16.5830644 10.3590366,15.8142508 8.73744516,16.2560136 C7.75593978,16.5226576 6.97976774,17.1792 6.52996129,18.0194034 C6.52454194,18.0285559 6.51912258,18.039539 6.51310108,18.0511322 C6.50467097,18.0621153 6.49925161,18.0743186 6.49323011,18.0859119 C6.45649892,18.1457085 6.42578925,18.2122169 6.40230538,18.2805559 C6.34329462,18.4300475 6.3119828,18.5960136 6.3119828,18.7656407 C6.3119828,19.3562847 6.68591828,19.8608949 7.20376774,20.0500475 C7.20617634,20.0500475 7.21219785,20.0524881 7.2176172,20.0524881 C7.28264946,20.0726237 7.35611183,20.0903186 7.42475699,20.1074034 C7.43258495,20.1104542 7.4416172,20.1135051 7.44703656,20.1135051 C8.89882151,20.4747254 10.4385204,20.4826576 11.9270366,20.1013017 C11.9637677,20.0958102 11.9974882,20.0872678 12.0318108,20.0756746 C12.0462624,20.0726237 12.0571011,20.0701831 12.0685419,20.0646915 C12.0799828,20.0616407 12.0884129,20.0585898 12.0992516,20.055539 C12.6255312,19.8694373 13.0024774,19.3617763 13.0024774,18.7656407 C13.0024774,18.5990644 12.9747785,18.4385898 12.9205849,18.2921492 C12.9175742,18.2866576 12.9145634,18.2805559 12.9121548,18.2775051" id="Fill-1"></path>
                            <path d="M17.7317075,4.40389831 C16.7664602,2.70884746 15.3604387,1.43298305 13.7442667,0.635491525 C13.7352344,0.629389831 13.7243957,0.626949153 13.7153634,0.621457627 C13.6702022,0.595220339 13.6250409,0.575694915 13.577471,0.558 L13.5600086,0.549457627 C13.4124817,0.495152542 13.2541161,0.463423729 13.0873204,0.463423729 C12.6941161,0.463423729 12.3400516,0.632440678 12.0943742,0.905186441 C12.0913634,0.908237288 12.0883527,0.910677966 12.0853419,0.916169492 C12.0660731,0.94240678 12.0431914,0.971084746 12.0179011,0.999762712 C12.0088688,1.00525424 12.0064602,1.01379661 12.0004387,1.01989831 C11.8228043,1.24322034 11.629514,1.45861017 11.4259871,1.66789831 C10.857557,2.24694915 10.2006108,2.76376271 9.46779355,3.1939322 C9.0264172,3.45142373 8.57058925,3.66986441 8.10934194,3.84742373 C8.10934194,3.85047458 8.10693333,3.85047458 8.10392258,3.85047458 C8.08947097,3.8559661 8.07261075,3.86145763 8.05575054,3.86755932 C8.04732043,3.87305085 8.03828817,3.87915254 8.02744946,3.87610169 C7.97927742,3.89318644 7.92809462,3.90172881 7.87751398,3.90172881 C7.58005161,3.90172881 7.3391914,3.65766102 7.3391914,3.35684746 C7.3391914,3.294 7.35123441,3.23664407 7.37050323,3.18172881 C7.37351398,3.16220339 7.38254624,3.14755932 7.38736344,3.13047458 C7.52043871,2.7399661 7.58547097,2.322 7.57463226,1.89732203 C7.57764301,1.87413559 7.57764301,1.85094915 7.57764301,1.82837288 C7.57764301,1.79725424 7.57764301,1.76247458 7.57463226,1.73074576 C7.57162151,1.67949153 7.5631914,1.62762712 7.55175054,1.57576271 C7.43854624,0.94240678 6.88938495,0.463423729 6.23003011,0.463423729 C6.0523957,0.463423729 5.87897634,0.49820339 5.72362151,0.563491525 C5.67605161,0.583627119 5.62727742,0.606813559 5.58211613,0.632440678 C5.38701935,0.727627119 5.19192258,0.833186441 4.99863226,0.944847458 C3.68293333,1.71671186 2.62194409,2.76071186 1.84938495,3.97067797 C1.72775054,4.15738983 1.61394409,4.34898305 1.50977204,4.54179661 C0.598116129,6.20755932 0.199492473,8.1259322 0.380739785,10.033322 L0.380739785,10.0357627 C0.505384946,11.3409153 0.898589247,12.6369153 1.58865376,13.8474915 C1.78736344,14.1971186 2.00775054,14.529661 2.24258925,14.8420678 C2.26246022,14.8676949 2.27932043,14.893322 2.2991914,14.9195593 C2.38710538,15.0434237 2.48344946,15.1605763 2.5852129,15.2722373 C2.59063226,15.2807797 2.59906237,15.2899322 2.60809462,15.2978644 C3.47940645,16.2247119 4.80654624,16.6487797 6.11140645,16.2961017 C8.0099871,15.7805085 9.13901935,13.8011186 8.63020215,11.8742034 C8.48809462,11.3409153 8.2363957,10.8674237 7.9028043,10.4714237 C7.88052473,10.4488475 7.85764301,10.4201695 7.83476129,10.3914915 C7.65411613,10.1596271 7.54633118,9.86674576 7.54633118,9.54884746 C7.54633118,8.7940678 8.14908387,8.18328814 8.89334194,8.18328814 C9.17936344,8.18328814 9.44190108,8.27237288 9.66048172,8.42430508 C9.87785806,8.27237288 10.1416,8.18328814 10.4240086,8.18328814 C11.1688688,8.18328814 11.7716215,8.7940678 11.7716215,9.54884746 C11.7716215,9.87223729 11.6608258,10.1706102 11.4741591,10.4030847 C11.465729,10.414678 11.4572989,10.4226102 11.4512774,10.4317627 C10.6931699,11.3067458 10.3704172,12.5362373 10.6907613,13.7443729 C11.1995785,15.6682373 13.1529548,16.8123051 15.0515355,16.2961017 C15.6994495,16.1209831 16.2570409,15.7744068 16.6905892,15.3210508 C16.7580301,15.2490508 16.8230624,15.1746102 16.8826753,15.0971186 C16.9248258,15.0483051 16.9645677,14.9970508 16.9982882,14.9451864 C17.0043097,14.9421356 17.0073204,14.9396949 17.0073204,14.9372542 C18.1050409,13.5118983 18.7643957,11.8022034 18.9372129,10.0302712 L18.9372129,10.0272203 C19.1184602,8.13752542 18.7391054,6.17277966 17.7317075,4.40389831" id="Fill-3"></path>
                        </g>
                        <g id="Group-8" transform="translate(0.000000, 0.000854)">
                            <mask id="mask-2" fill="white">
                                <use xlink:href="#path-1"></use>
                            </mask>
                            <g id="Clip-7"></g>
                            <path d="M9.32791398,0.609559322 C8.58365591,0.609559322 7.98090323,1.22033898 7.98090323,1.97450847 L7.98090323,1.97450847 C7.98090323,2.18074576 8.02606452,2.37844068 8.10855914,2.55355932 L8.10855914,2.55355932 C8.1248172,2.58223729 8.14227957,2.61335593 8.15612903,2.64569492 L8.15612903,2.64569492 C8.25849462,2.85498305 8.3427957,3.07830508 8.40541935,3.31322034 L8.40541935,3.31322034 C8.80404301,4.82216949 8.19647312,6.36467797 6.99939785,7.21098305 L6.99939785,7.21098305 C6.98976344,7.21647458 6.97892473,7.2219661 6.97049462,7.23111864 L6.97049462,7.23111864 C6.91690323,7.26833898 6.85969892,7.30311864 6.80369892,7.33972881 L6.80369892,7.33972881 C5.11406452,8.45816949 3.71286022,9.87498305 2.63501075,11.4778983 L2.63501075,11.4778983 C-0.534107527,16.1780339 -0.973075269,22.4902373 2.02382796,27.7468475 L2.02382796,27.7468475 C6.18649462,35.056678 15.4072258,37.5602034 22.6203871,33.3390508 L22.6203871,33.3390508 C29.7661075,29.1575593 32.2572043,19.9464407 28.2498925,12.668339 L28.2498925,12.668339 C27.9126882,12.088678 27.5538065,11.5267119 27.1774624,10.9848814 L27.1774624,10.9848814 C25.0512688,7.92488136 22.3349677,5.48420339 19.2784516,3.72935593 L19.2784516,3.72935593 C16.2725161,2.00562712 12.936,0.94820339 9.50916129,0.62359322 L9.50916129,0.62359322 C9.47544086,0.618101695 9.43810753,0.614440678 9.40498925,0.612610169 L9.40498925,0.612610169 C9.37849462,0.609559322 9.3532043,0.609559322 9.32791398,0.609559322 Z M13.4767312,14.8503051 C13.4935914,14.8448136 13.5110538,14.8387119 13.5249032,14.8332203 L13.5249032,14.8332203 C13.527914,14.8332203 13.5303226,14.8332203 13.5303226,14.8307797 L13.5303226,14.8307797 C13.9915699,14.6526102 14.4473978,14.4347797 14.8893763,14.176678 L14.8893763,14.176678 C15.6215914,13.7465085 16.2785376,13.2296949 16.8469677,12.6506441 L16.8469677,12.6506441 C17.0516989,12.4419661 17.2437849,12.2265763 17.4214194,12.0032542 L17.4214194,12.0032542 C17.4274409,11.9971525 17.4310538,11.9886102 17.4388817,11.9825085 L17.4388817,11.9825085 C17.464172,11.9544407 17.4870538,11.9257627 17.5069247,11.8995254 L17.5069247,11.8995254 C17.5093333,11.8940339 17.5123441,11.8909831 17.5153548,11.8885424 L17.5153548,11.8885424 C17.7616344,11.6157966 18.1150968,11.4461695 18.5089032,11.4461695 L18.5089032,11.4461695 C18.6756989,11.4461695 18.8346667,11.4778983 18.9815914,11.5322034 L18.9815914,11.5322034 L18.9978495,11.5413559 C19.0460215,11.5584407 19.0917849,11.5779661 19.1375484,11.6042034 L19.1375484,11.6042034 C19.1453763,11.6096949 19.1562151,11.6127458 19.1658495,11.6188475 L19.1658495,11.6188475 C20.7808172,12.4157288 22.188043,13.6915932 23.1526882,15.3866441 L23.1526882,15.3866441 C24.160086,17.1561356 24.5394409,19.1208814 24.3581935,21.0105763 L24.3581935,21.0105763 L24.3581935,21.0130169 C24.1859785,22.7849492 23.5260215,24.4946441 22.4283011,25.92 L22.4283011,25.92 C22.4283011,25.9224407 22.4252903,25.9254915 22.4192688,25.9285424 L22.4192688,25.9285424 C22.3861505,25.9804068 22.3464086,26.031661 22.3036559,26.0804746 L22.3036559,26.0804746 C22.244043,26.1579661 22.1790108,26.2324068 22.1115699,26.3044068 L22.1115699,26.3044068 C21.6780215,26.7571525 21.1204301,27.104339 20.4725161,27.2794576 L20.4725161,27.2794576 C18.5739355,27.795661 16.6211613,26.6509831 16.1117419,24.7271186 L16.1117419,24.7271186 C15.792,23.5195932 16.1147527,22.2894915 16.8728602,21.4151186 L16.8728602,21.4151186 C16.8788817,21.4053559 16.8873118,21.3974237 16.8951398,21.3864407 L16.8951398,21.3864407 C17.0824086,21.1533559 17.1926022,20.8555932 17.1926022,20.5322034 L17.1926022,20.5322034 C17.1926022,19.7774237 16.5898495,19.1666441 15.8449892,19.1666441 L15.8449892,19.1666441 C15.5619785,19.1666441 15.2994409,19.2551186 15.0814624,19.4070508 L15.0814624,19.4070508 C14.8628817,19.2551186 14.6003441,19.1666441 14.3149247,19.1666441 L14.3149247,19.1666441 C13.5700645,19.1666441 12.9673118,19.7774237 12.9673118,20.5322034 L12.9673118,20.5322034 C12.9673118,20.8501017 13.0750968,21.1423729 13.2563441,21.3748475 L13.2563441,21.3748475 C13.2786237,21.4035254 13.3015054,21.4322034 13.3237849,21.4547797 L13.3237849,21.4547797 C13.6579785,21.8507797 13.9096774,22.323661 14.0511828,22.8575593 L14.0511828,22.8575593 C14.56,24.7844746 13.4315699,26.7632542 11.5323871,27.2794576 L11.5323871,27.2794576 C10.228129,27.6321356 8.90098925,27.2080678 8.02907527,26.2812203 L8.02907527,26.2812203 C8.02004301,26.272678 8.01221505,26.2641356 8.00619355,26.2555932 L8.00619355,26.2555932 C7.90443011,26.1439322 7.80808602,26.0261695 7.72017204,25.9029153 L7.72017204,25.9029153 C7.70030108,25.876678 7.68404301,25.8510508 7.66417204,25.8254237 L7.66417204,25.8254237 C7.42873118,25.5130169 7.20834409,25.1798644 7.00963441,24.8302373 L7.00963441,24.8302373 C6.31956989,23.619661 5.92636559,22.323661 5.80172043,21.0191186 L5.80172043,21.0191186 L5.80172043,21.0160678 C5.62047312,19.1092881 6.01969892,17.1909153 6.93075269,15.5245424 L6.93075269,15.5245424 C7.03612903,15.332339 7.14873118,15.1401356 7.27036559,14.9534237 L7.27036559,14.9534237 C8.04352688,13.7434576 9.10451613,12.6994576 10.4196129,11.9282034 L10.4196129,11.9282034 C10.6129032,11.8165424 10.8086022,11.7103729 11.0036989,11.6157966 L11.0036989,11.6157966 C11.0482581,11.5901695 11.0964301,11.5669831 11.1446022,11.5468475 L11.1446022,11.5468475 C11.3005591,11.4809492 11.4733763,11.4461695 11.6516129,11.4461695 L11.6516129,11.4461695 C12.3103656,11.4461695 12.8595269,11.9257627 12.9733333,12.5591186 L12.9733333,12.5591186 C12.984172,12.6109831 12.9926022,12.6628475 12.9956129,12.7134915 L12.9956129,12.7134915 C12.9986237,12.7458305 12.9986237,12.78 12.9986237,12.8117288 L12.9986237,12.8117288 C12.9986237,12.8343051 12.9986237,12.8574915 12.9956129,12.8800678 L12.9956129,12.8800678 C13.0070538,13.3053559 12.9420215,13.723322 12.8083441,14.1132203 L12.8083441,14.1132203 C12.8029247,14.1309153 12.7944946,14.1455593 12.7926882,14.1650847 L12.7926882,14.1650847 C12.7722151,14.2193898 12.7607742,14.2773559 12.7607742,14.3402034 L12.7607742,14.3402034 C12.7607742,14.6410169 13.0016344,14.8844746 13.2984946,14.8844746 L13.2984946,14.8844746 C13.3496774,14.8844746 13.4002581,14.8759322 13.4484301,14.8594576 L13.4484301,14.8594576 C13.4502366,14.8594576 13.452043,14.8600678 13.4538495,14.8600678 L13.4538495,14.8600678 C13.4622796,14.8600678 13.4695054,14.8551864 13.4767312,14.8503051 L13.4767312,14.8503051 Z M12.867957,31.096678 C12.8625376,31.096678 12.8541075,31.0930169 12.8456774,31.0905763 L12.8456774,31.0905763 C12.7782366,31.0728814 12.704172,31.0557966 12.6397419,31.0362712 L12.6397419,31.0362712 C12.6337204,31.0362712 12.6276989,31.0332203 12.6246882,31.0332203 L12.6246882,31.0332203 C12.1074409,30.8440678 11.7341075,30.3394576 11.7341075,29.7482034 L11.7341075,29.7482034 C11.7341075,29.5791864 11.7648172,29.4126102 11.8244301,29.2637288 L11.8244301,29.2637288 C11.8467097,29.1947797 11.8774194,29.1288814 11.9147527,29.0684746 L11.9147527,29.0684746 C11.920172,29.0574915 11.9255914,29.0458983 11.9346237,29.0336949 L11.9346237,29.0336949 C11.940043,29.0227119 11.9460645,29.0111186 11.9514839,29.0025763 L11.9514839,29.0025763 C12.4012903,28.1623729 13.1768602,27.5058305 14.1583656,27.2391864 L14.1583656,27.2391864 C15.7805591,26.7974237 17.4418925,27.5662373 18.2084301,29.0025763 L18.2084301,29.0025763 C18.2168602,29.0166102 18.2258925,29.0312542 18.2337204,29.048339 L18.2337204,29.048339 C18.2397419,29.0574915 18.2457634,29.0684746 18.248172,29.0770169 L18.248172,29.0770169 C18.268043,29.1063051 18.2818925,29.1349831 18.2933333,29.1661017 L18.2933333,29.1661017 C18.3101935,29.1978305 18.3246452,29.2295593 18.3330753,29.260678 L18.3330753,29.260678 C18.3366882,29.2637288 18.3384946,29.2692203 18.3415054,29.275322 L18.3415054,29.275322 C18.3956989,29.4217627 18.4233978,29.5822373 18.4233978,29.7482034 L18.4233978,29.7482034 C18.4233978,30.3455593 18.0476559,30.8526102 17.5213763,31.0387119 L17.5213763,31.0387119 C17.5093333,31.0417627 17.5015054,31.0442034 17.4900645,31.0478644 L17.4900645,31.0478644 C17.4786237,31.0533559 17.4671828,31.0557966 17.4527312,31.0588475 L17.4527312,31.0588475 C17.4190108,31.0704407 17.3852903,31.0789831 17.3485591,31.0844746 L17.3485591,31.0844746 C16.6018925,31.2754576 15.8431828,31.3688136 15.0892903,31.3688136 L15.0892903,31.3688136 C14.3384086,31.3688136 13.5923441,31.276678 12.867957,31.096678 L12.867957,31.096678 Z" id="Fill-6" fill="url(#linearGradient-3)" mask="url(#mask-2)"></path>
                        </g>
                        <g id="Group-11" transform="translate(8.430108, 15.865261)">
                            <mask id="mask-5" fill="white">
                                <use xlink:href="#path-4"></use>
                            </mask>
                            <g id="Clip-10"></g>
                            <path d="M0.578064516,0.675457627 C0.40283871,0.907322034 0.300473118,1.19410169 0.300473118,1.51016949 L0.300473118,1.51016949 C0.300473118,1.53823729 0.30288172,1.56691525 0.308903226,1.59559322 L0.308903226,1.59559322 C0.348645161,1.78535593 0.513032258,1.92813559 0.714150538,1.92813559 L0.714150538,1.92813559 C0.942967742,1.92813559 1.12963441,1.7420339 1.12963441,1.51016949 L1.12963441,1.51016949 C1.12963441,1.20813559 1.37109677,0.964677966 1.66434409,0.964677966 L1.66434409,0.964677966 C1.96180645,0.964677966 2.20206452,1.20813559 2.20206452,1.51016949 L2.20206452,1.51016949 C2.20206452,1.7420339 2.38933333,1.92813559 2.61815054,1.92813559 L2.61815054,1.92813559 C2.81926882,1.92813559 2.98666667,1.78535593 3.02339785,1.59559322 L3.02339785,1.59559322 C3.02941935,1.56691525 3.03182796,1.53823729 3.03182796,1.51016949 L3.03182796,1.51016949 C3.03182796,1.04461017 2.80782796,0.635186441 2.4627957,0.385016949 L2.4627957,0.385016949 L2.45978495,0.385016949 C2.2363871,0.219050847 1.95939785,0.124474576 1.66434409,0.124474576 L1.66434409,0.124474576 C1.21995699,0.124474576 0.824344086,0.339864407 0.578064516,0.675457627" id="Fill-9" fill="url(#linearGradient-6)" mask="url(#mask-5)"></path>
                        </g>
                        <g id="Group-14" transform="translate(18.666667, 15.865261)">
                            <mask id="mask-8" fill="white">
                                <use xlink:href="#path-7"></use>
                            </mask>
                            <g id="Clip-13"></g>
                            <path d="M0.0319139785,1.51016949 C0.0319139785,1.7420339 0.217978495,1.92813559 0.444387097,1.92813559 L0.444387097,1.92813559 C0.673806452,1.92813559 0.861075269,1.7420339 0.861075269,1.51016949 L0.861075269,1.51016949 C0.861075269,1.20813559 1.10133333,0.964677966 1.39819355,0.964677966 L1.39819355,0.964677966 C1.69625806,0.964677966 1.93651613,1.20813559 1.93651613,1.51016949 L1.93651613,1.51016949 C1.93651613,1.7420339 2.11956989,1.92813559 2.34898925,1.92813559 L2.34898925,1.92813559 C2.57901075,1.92813559 2.76567742,1.7420339 2.76567742,1.51016949 L2.76567742,1.51016949 C2.76567742,0.74379661 2.15148387,0.124474576 1.39819355,0.124474576 L1.39819355,0.124474576 C0.642494624,0.124474576 0.0319139785,0.74379661 0.0319139785,1.51016949" id="Fill-12" fill="url(#linearGradient-9)" mask="url(#mask-8)"></path>
                        </g>
                        <g id="Group-17" transform="translate(44.559140, 12.204244)">
                            <mask id="mask-11" fill="white">
                                <use xlink:href="#path-10"></use>
                            </mask>
                            <g id="Clip-16"></g>
                            <path d="M3.01376344,0.717559322 L0.599139785,3.16372881 C0.200516129,3.56827119 0.200516129,4.22237288 0.599139785,4.62691525 L0.599139785,4.62691525 C0.998365591,5.03023729 1.64387097,5.03023729 2.04249462,4.62691525 L2.04249462,4.62691525 L4.45651613,2.18013559 C4.85574194,1.77620339 4.85574194,1.12149153 4.45651613,0.717559322 L4.45651613,0.717559322 C4.2572043,0.514983051 3.99587097,0.414305085 3.73513978,0.414305085 L3.73513978,0.414305085 C3.47380645,0.414305085 3.21247312,0.514983051 3.01376344,0.717559322" id="Fill-15" fill="url(#linearGradient-12)" mask="url(#mask-11)"></path>
                        </g>
                        <g id="Group-20" transform="translate(44.559140, 9.153397)">
                            <mask id="mask-14" fill="white">
                                <use xlink:href="#path-13"></use>
                            </mask>
                            <g id="Clip-19"></g>
                            <path d="M2.70787097,1.59559322 L2.70787097,6.39701695 L2.70787097,13.5927458 C2.70787097,16.4764068 2.45797849,19.6797966 0.602150538,21.5755932 L0.602150538,21.5755932 C0.205333333,21.9813559 0.207741935,22.636678 0.608172043,23.0387797 L0.608172043,23.0387797 C0.807483871,23.2389153 1.0676129,23.3383729 1.32713978,23.3383729 L1.32713978,23.3383729 C1.58907527,23.3383729 1.85221505,23.2358644 2.05152688,23.032678 L2.05152688,23.032678 C4.4288172,20.6029831 4.74916129,16.8974237 4.74916129,13.5927458 L4.74916129,13.5927458 L4.74916129,1.59559322 C4.74916129,1.02386441 4.29273118,0.561355932 3.72911828,0.561355932 L3.72911828,0.561355932 C3.16550538,0.561355932 2.70787097,1.02386441 2.70787097,1.59559322" id="Fill-18" fill="url(#linearGradient-15)" mask="url(#mask-14)"></path>
                        </g>
                        <g id="Group-23" transform="translate(49.978495, 9.153397)">
                            <mask id="mask-17" fill="white">
                                <use xlink:href="#path-16"></use>
                            </mask>
                            <g id="Clip-22"></g>
                            <path d="M1.59208602,0.507050847 C1.02787097,0.507050847 0.57083871,0.970779661 0.57083871,1.54128814 L0.57083871,1.54128814 C0.57083871,2.11301695 1.02787097,2.57613559 1.59208602,2.57613559 L1.59208602,2.57613559 L4.44567742,2.57613559 L4.44567742,5.38657627 C2.23458065,5.86372881 0.57083871,7.85776271 0.57083871,10.2380339 L0.57083871,10.2380339 L0.57083871,17.895661 C0.57083871,18.4661695 1.02787097,18.9292881 1.59208602,18.9292881 L1.59208602,18.9292881 C2.15509677,18.9292881 2.61212903,18.4661695 2.61212903,17.895661 L2.61212903,17.895661 L2.61212903,10.2380339 C2.61212903,9.00732203 3.37445161,7.95538983 4.44567742,7.5380339 L4.44567742,7.5380339 L4.44567742,22.3041356 C4.44567742,22.8752542 4.90210753,23.3383729 5.46632258,23.3383729 L5.46632258,23.3383729 C6.02993548,23.3383729 6.48696774,22.8752542 6.48696774,22.3041356 L6.48696774,22.3041356 L6.48696774,7.5380339 C7.5575914,7.95538983 8.32051613,9.00732203 8.32051613,10.2380339 L8.32051613,10.2380339 L8.32051613,17.895661 C8.32051613,18.4661695 8.77694624,18.9292881 9.33995699,18.9292881 L9.33995699,18.9292881 C9.90417204,18.9292881 10.3612043,18.4661695 10.3612043,17.895661 L10.3612043,17.895661 L10.3612043,10.2380339 C10.3612043,7.85776271 8.69806452,5.86372881 6.48696774,5.38657627 L6.48696774,5.38657627 L6.48696774,2.57613559 L9.33995699,2.57613559 C9.90417204,2.57613559 10.3612043,2.11301695 10.3612043,1.54128814 L10.3612043,1.54128814 C10.3612043,0.970779661 9.90417204,0.507050847 9.33995699,0.507050847 L9.33995699,0.507050847 L1.59208602,0.507050847 Z" id="Fill-21" fill="url(#linearGradient-18)" mask="url(#mask-17)"></path>
                        </g>
                        <g id="Group-26" transform="translate(66.236559, 9.153397)">
                            <mask id="mask-20" fill="white">
                                <use xlink:href="#path-19"></use>
                            </mask>
                            <g id="Clip-25"></g>
                            <path d="M3.41058065,0.478372881 C1.65169892,0.478372881 0.220989247,1.92874576 0.220989247,3.71105085 L0.220989247,3.71105085 L0.220989247,20.1654915 C0.220989247,21.9471864 1.65169892,23.3975593 3.41058065,23.3975593 L3.41058065,23.3975593 L17.036043,23.3975593 C18.7949247,23.3975593 20.2262366,21.9471864 20.2262366,20.1654915 L20.2262366,20.1654915 L20.2262366,3.71105085 C20.2262366,1.92874576 18.7949247,0.478372881 17.036043,0.478372881 L17.036043,0.478372881 L3.41058065,0.478372881 Z M2.26227957,20.1654915 L2.26227957,3.71105085 C2.26227957,3.06915254 2.77711828,2.54745763 3.41058065,2.54745763 L3.41058065,2.54745763 L17.036043,2.54745763 C17.6689032,2.54745763 18.1843441,3.06915254 18.1843441,3.71105085 L18.1843441,3.71105085 L18.1843441,20.1654915 C18.1843441,20.8067797 17.6689032,21.3290847 17.036043,21.3290847 L17.036043,21.3290847 L3.41058065,21.3290847 C2.77711828,21.3290847 2.26227957,20.8067797 2.26227957,20.1654915 L2.26227957,20.1654915 Z" id="Fill-24" fill="url(#linearGradient-21)" mask="url(#mask-20)"></path>
                        </g>
                        <g id="Group-29" transform="translate(69.247312, 12.204244)">
                            <mask id="mask-23" fill="white">
                                <use xlink:href="#path-22"></use>
                            </mask>
                            <g id="Clip-28"></g>
                            <path d="M6.57126882,1.09098305 C6.56584946,1.11294915 6.28404301,2.23016949 5.86313978,3.57010169 L5.86313978,3.57010169 L5.24954839,3.57010169 L3.90193548,1.97084746 C3.5864086,1.59620339 3.04387097,1.56325424 2.68980645,1.89823729 L2.68980645,1.89823729 C2.33574194,2.23322034 2.30503226,2.808 2.62116129,3.18325424 L2.62116129,3.18325424 L2.94692473,3.57010169 L1.41686022,3.57010169 C0.941763441,3.57010169 0.556989247,3.97769492 0.556989247,4.48047458 L0.556989247,4.48047458 C0.556989247,4.98325424 0.941763441,5.39084746 1.41686022,5.39084746 L1.41686022,5.39084746 L5.23991398,5.39084746 C5.09298925,5.78013559 4.93944086,6.15538983 4.78348387,6.49830508 L4.78348387,6.49830508 L0.927311828,6.49830508 C0.452817204,6.49830508 0.0686451613,6.90589831 0.0686451613,7.4080678 L0.0686451613,7.4080678 C0.0686451613,7.91145763 0.452817204,8.31844068 0.927311828,8.31844068 L0.927311828,8.31844068 L3.73453763,8.31844068 C2.81625806,9.66630508 1.792,10.6779661 0.730408602,11.2765424 L0.730408602,11.2765424 C0.311311828,11.512678 0.152344086,12.063661 0.375139785,12.5072542 L0.375139785,12.5072542 C0.529290323,12.8153898 0.826752688,12.9905085 1.13445161,12.9905085 L1.13445161,12.9905085 C1.27053763,12.9905085 1.40843011,12.9557288 1.53668817,12.8837288 L1.53668817,12.8837288 C2.11776344,12.556678 2.6843871,12.1332203 3.23053763,11.624339 L3.23053763,11.624339 C3.21367742,11.7610169 3.20404301,11.9007458 3.20404301,12.0423051 L3.20404301,12.0423051 L3.20404301,14.2456271 C3.20404301,15.9632542 4.47819355,17.3599322 6.04378495,17.3599322 L6.04378495,17.3599322 L9.46460215,17.3599322 C11.1741075,17.3599322 12.6632258,16.1517966 13.167828,14.3536271 L13.167828,14.3536271 C13.3027097,13.8715932 13.0443871,13.3651525 12.5897634,13.2217627 L12.5897634,13.2217627 C12.1357419,13.0783729 11.6570323,13.3529492 11.5215484,13.8343729 L11.5215484,13.8343729 C11.2349247,14.8539661 10.4087742,15.5391864 9.46460215,15.5391864 L9.46460215,15.5391864 L6.04378495,15.5391864 C5.42537634,15.5391864 4.92197849,14.9589153 4.92197849,14.2456271 L4.92197849,14.2456271 L4.92197849,12.0423051 C4.92197849,11.3284068 5.42537634,10.7481356 6.04378495,10.7481356 L6.04378495,10.7481356 L8.59630108,10.7481356 C8.94193548,10.7481356 9.22374194,11.0818983 9.22374194,11.491322 L9.22374194,11.491322 C9.22374194,11.9757966 8.87449462,12.3864407 8.46021505,12.3864407 L8.46021505,12.3864407 L7.19208602,12.3864407 C6.7187957,12.3864407 6.33402151,12.7934237 6.33402151,13.2962034 L6.33402151,13.2962034 C6.33402151,13.7989831 6.7187957,14.2059661 7.19208602,14.2059661 L7.19208602,14.2059661 L8.46021505,14.2059661 C9.82890323,14.2059661 10.9410753,12.9880678 10.9410753,11.491322 L10.9410753,11.491322 C10.9410753,11.3491525 10.9302366,11.2106441 10.9097634,11.0745763 L10.9097634,11.0745763 C11.5137204,11.5858983 12.2585806,12.0722034 13.1744516,12.4669831 L13.1744516,12.4669831 C13.2810323,12.5133559 13.3900215,12.5347119 13.4978065,12.5347119 L13.4978065,12.5347119 C13.8374194,12.5347119 14.1583656,12.3205424 14.2938495,11.9672542 L14.2938495,11.9672542 C14.4732903,11.5023051 14.2613333,10.9702373 13.8217634,10.7810847 L13.8217634,10.7810847 C12.2363011,10.0970847 11.3017634,9.09884746 10.7736774,8.31844068 L10.7736774,8.31844068 L13.4984086,8.31844068 C13.9723011,8.31844068 14.3570753,7.91145763 14.3570753,7.4080678 L14.3570753,7.4080678 C14.3570753,6.90589831 13.9723011,6.49830508 13.4984086,6.49830508 L13.4984086,6.49830508 L9.3544086,6.49830508 L9.34597849,6.49830508 L6.6652043,6.49830508 C6.80972043,6.13769492 6.94821505,5.76366102 7.07948387,5.39084746 L7.07948387,5.39084746 L13.0094624,5.39084746 C13.4827527,5.39084746 13.8675269,4.98325424 13.8675269,4.48047458 L13.8675269,4.48047458 C13.8675269,3.97769492 13.4827527,3.57010169 13.0094624,3.57010169 L13.0094624,3.57010169 L11.5089032,3.57010169 L11.8292473,3.15213559 C12.1297204,2.76223729 12.0743226,2.18928814 11.7058065,1.87138983 L11.7058065,1.87138983 C11.3384946,1.55349153 10.7977634,1.61267797 10.4972903,2.00257627 L10.4972903,2.00257627 L9.29298925,3.57010169 L7.67019355,3.57010169 C8.00077419,2.47301695 8.21212903,1.63586441 8.23139785,1.55776271 L8.23139785,1.55776271 C8.35303226,1.07267797 8.08025806,0.574779661 7.62141935,0.444813559 L7.62141935,0.444813559 C7.54795699,0.424067797 7.47389247,0.414305085 7.40103226,0.414305085 L7.40103226,0.414305085 C7.02107527,0.414305085 6.67363441,0.683389831 6.57126882,1.09098305 M5.79630108,8.31844068 L8.78055914,8.31844068 C8.87088172,8.51430508 8.98890323,8.74433898 9.14064516,8.99877966 L9.14064516,8.99877966 C8.96662366,8.95301695 8.78417204,8.928 8.59630108,8.928 L8.59630108,8.928 L6.04378495,8.928 C5.81195699,8.928 5.58615054,8.95972881 5.36997849,9.01769492 L5.36997849,9.01769492 C5.51569892,8.7919322 5.6572043,8.55823729 5.79630108,8.31844068" id="Fill-27" fill="url(#linearGradient-24)" mask="url(#mask-23)"></path>
                        </g>
                        <g id="Group-32" transform="translate(88.516129, 9.153397)">
                            <mask id="mask-26" fill="white">
                                <use xlink:href="#path-25"></use>
                            </mask>
                            <g id="Clip-31"></g>
                            <path d="M5.46150538,1.64318644 L5.46150538,11.5242712 C5.46150538,13.748339 5.19475269,15.5465085 4.6455914,17.0212881 L4.6455914,17.0212881 C3.90313978,19.0177627 2.66692473,20.3930847 0.866494624,21.2265763 L0.866494624,21.2265763 C0.292043011,21.4926102 0.0385376344,22.179661 0.301075269,22.7623729 L0.301075269,22.7623729 C0.493763441,23.187661 0.908043011,23.439661 1.3415914,23.439661 L1.3415914,23.439661 C1.50055914,23.439661 1.66193548,23.4054915 1.81608602,23.3341017 L1.81608602,23.3341017 C4.16025806,22.2486102 5.83243011,20.3997966 6.78623656,17.8383051 L6.78623656,17.8383051 C7.43354839,16.0974915 7.74787097,14.0320678 7.74787097,11.5242712 L7.74787097,11.5242712 L7.74787097,1.64318644 C7.74787097,1.00311864 7.23604301,0.484474576 6.60498925,0.484474576 L6.60498925,0.484474576 C5.97273118,0.484474576 5.46150538,1.00311864 5.46150538,1.64318644" id="Fill-30" fill="url(#linearGradient-27)" mask="url(#mask-26)"></path>
                        </g>
                        <g id="Group-35" transform="translate(101.161290, 9.153397)">
                            <mask id="mask-29" fill="white">
                                <use xlink:href="#path-28"></use>
                            </mask>
                            <g id="Clip-34"></g>
                            <path d="M0.332989247,1.69810169 L0.332989247,18.6089492 C0.332989247,21.272339 2.47122581,23.4390508 5.09901075,23.4390508 L5.09901075,23.4390508 C7.93754839,23.4390508 10.2461935,21.099661 10.2461935,18.2239322 L10.2461935,18.2239322 L10.2461935,16.7369492 C10.2461935,16.0974915 9.73436559,15.5788475 9.10331183,15.5788475 L9.10331183,15.5788475 C8.47165591,15.5788475 7.95982796,16.0974915 7.95982796,16.7369492 L7.95982796,16.7369492 L7.95982796,18.2239322 C7.95982796,19.8219661 6.67664516,21.1222373 5.09901075,21.1222373 L5.09901075,21.1222373 C3.73273118,21.1222373 2.61935484,19.9952542 2.61935484,18.6089492 L2.61935484,18.6089492 L2.61935484,1.69810169 C2.61935484,1.0580339 2.10752688,0.54 1.47587097,0.54 L1.47587097,0.54 C0.844817204,0.54 0.332989247,1.0580339 0.332989247,1.69810169" id="Fill-33" fill="url(#linearGradient-30)" mask="url(#mask-29)"></path>
                        </g>
                        <g id="Group-38" transform="translate(39.139785, 9.153397)">
                            <mask id="mask-32" fill="white">
                                <use xlink:href="#path-31"></use>
                            </mask>
                            <g id="Clip-37"></g>
                            <path d="M3.19862366,1.59559322 L3.19862366,4.27484746 L0.600946237,6.61423729 C0.180043011,6.99376271 0.142107527,7.64786441 0.516043011,8.07437288 L0.516043011,8.07437288 C0.717763441,8.30501695 0.998967742,8.42155932 1.27956989,8.42155932 L1.27956989,8.42155932 C1.52043011,8.42155932 1.76309677,8.33552542 1.9575914,8.16040678 L1.9575914,8.16040678 L4.89729032,5.51288136 C5.11466667,5.31640678 5.23931183,5.03511864 5.23931183,4.74040678 L5.23931183,4.74040678 L5.23931183,1.59559322 C5.23931183,1.02386441 4.78227957,0.561355932 4.21866667,0.561355932 L4.21866667,0.561355932 C3.65505376,0.561355932 3.19862366,1.02386441 3.19862366,1.59559322" id="Fill-36" fill="url(#linearGradient-33)" mask="url(#mask-32)"></path>
                        </g>
                        <g id="Group-41" transform="translate(39.139785, 17.085600)">
                            <mask id="mask-35" fill="white">
                                <use xlink:href="#path-34"></use>
                            </mask>
                            <g id="Clip-40"></g>
                            <path d="M3.54064516,0.502779661 L0.600946237,3.15030508 C0.180043011,3.52983051 0.142107527,4.1839322 0.516043011,4.61044068 L0.516043011,4.61044068 C0.890580645,5.03755932 1.53548387,5.07538983 1.9575914,4.69647458 L1.9575914,4.69647458 L3.19862366,3.57864407 L3.19862366,7.31532203 C3.19862366,11.3735593 1.95277419,12.7171525 0.734623656,13.4969492 L0.734623656,13.4969492 C0.25772043,13.8026441 0.115010753,14.4414915 0.416086022,14.9241356 L0.416086022,14.9241356 C0.610580645,15.2359322 0.94116129,15.4067797 1.28017204,15.4061711 L1.28017204,15.4061711 C1.46623656,15.4061711 1.65531183,15.3549153 1.82391398,15.2463051 L1.82391398,15.2463051 C4.18615054,13.7343051 5.23931183,11.2887458 5.23931183,7.31532203 L5.23931183,7.31532203 L5.23931183,1.27586441 C5.23931183,0.867661017 5.00387097,0.499118644 4.63716129,0.331932203 L4.63716129,0.331932203 C4.50288172,0.270915254 4.36017204,0.241016949 4.21866667,0.241016949 L4.21866667,0.241016949 C3.9735914,0.241016949 3.73092473,0.330711864 3.54064516,0.502779661" id="Fill-39" fill="url(#linearGradient-36)" mask="url(#mask-35)"></path>
                        </g>
                    </g>
                </g>
            </g>
        </g>
    </g>
</svg>