<?xml version="1.0" encoding="UTF-8"?>
<svg width="14px" height="12px" viewBox="0 0 14 12" version="1.1" xmlns="http://www.w3.org/2000/svg" xmlns:xlink="http://www.w3.org/1999/xlink">
    <!-- Generator: Sketch 60 (88103) - https://sketch.com -->
    <title>icon_sx</title>
    <desc>Created with Sketch.</desc>
    <g id="houtai" stroke="none" stroke-width="1" fill="none" fill-rule="evenodd">
        <g id="1-项目列表-待发布列表" transform="translate(-1857.000000, -90.000000)" fill="#999999" fill-rule="nonzero">
            <g id="new" transform="translate(80.000000, 80.000000)">
                <g id="Group-14" transform="translate(1777.000000, 7.000000)">
                    <g id="icon_sx" transform="translate(0.000000, 3.000000)">
                        <path d="M7.89790498,5.26862691 L11.5841285,1.13066702 C11.7562347,0.93706572 11.7386228,0.639823675 11.5450215,0.467733631 C11.4511616,0.385588028 11.3357742,0.346497162 11.220403,0.348430758 C11.1949762,0.344531339 11.1675997,0.340615808 11.1402232,0.340615808 L0.66235652,0.340615808 C0.402255632,0.340615808 0.193024431,0.549863121 0.193024431,0.809947897 C0.193024431,0.937049607 0.243861893,1.05245306 0.326007496,1.13653226 L3.97898929,5.23733488 L3.97898929,9.91112646 C3.97898929,10.1262229 4.12368672,10.3081098 4.32120355,10.3628628 L7.23890324,11.6496226 C7.29952147,11.6769991 7.36405524,11.6887296 7.42860512,11.6887296 C7.60851011,11.6887296 7.78060015,11.5850889 7.85883023,11.4090833 C7.89012225,11.3386843 7.90185274,11.2663194 7.89793721,11.1959204 L7.89793721,5.2686108 L7.89790498,5.26862691 Z M7.24671819,4.58813003 L4.64192267,4.57051819 L1.7105428,1.28127803 L10.1917944,1.28127803 L7.2467343,4.58813003 L7.24671819,4.58813003 Z M4.91765346,5.51111596 L6.95925691,5.52481227 L6.95925691,10.4997614 L4.91765346,9.60020422 L4.91765346,5.51111596 L4.91765346,5.51111596 Z" id="Shape"></path>
                        <path d="M8.95000679,6.33830833 C8.95000679,6.59840922 9.1592541,6.80764042 9.41933888,6.80764042 L12.8885001,6.80764042 C13.148601,6.80764042 13.3578322,6.59839311 13.3578322,6.33830833 C13.3578322,6.07822356 13.1485849,5.86897624 12.8885001,5.86897624 L9.41933888,5.86897624 C9.16120381,5.86897624 8.95000679,6.07822356 8.95000679,6.33830833 Z M12.8885163,8.0768045 L9.41935499,8.0768045 C9.1592541,8.0768045 8.9500229,8.28605181 8.9500229,8.54613659 C8.9500229,8.80622136 9.15927022,9.01546868 9.41935499,9.01546868 L12.8885163,9.01546868 C13.1486171,9.01546868 13.3578483,8.80622136 13.3578483,8.54613659 C13.3578483,8.28800152 13.148601,8.0768045 12.8885163,8.0768045 Z M12.8885163,10.2865986 L9.41935499,10.2865986 C9.1592541,10.2865986 8.9500229,10.4958459 8.9500229,10.7559307 C8.9500229,11.0160154 9.15927022,11.2252628 9.41935499,11.2252628 L12.8885163,11.2252628 C13.1486171,11.2252628 13.3578483,11.0160154 13.3578483,10.7559307 C13.3578483,10.4958459 13.148601,10.2865986 12.8885163,10.2865986 Z" id="Shape"></path>
                    </g>
                </g>
            </g>
        </g>
    </g>
</svg>