<?xml version="1.0" encoding="UTF-8"?>
<svg width="24px" height="18px" viewBox="0 0 24 18" version="1.1" xmlns="http://www.w3.org/2000/svg" xmlns:xlink="http://www.w3.org/1999/xlink">
    <!-- Generator: Sketch 60 (88103) - https://sketch.com -->
    <title>icon_left tab_logo</title>
    <desc>Created with Sketch.</desc>
    <defs>
        <polygon id="path-1" points="0 17.3084513 23.8874034 17.3084513 23.8874034 0 0 0"></polygon>
    </defs>
    <g id="houtai" stroke="none" stroke-width="1" fill="none" fill-rule="evenodd">
        <g id="1-项目列表-待发布列表" transform="translate(-18.000000, -21.000000)">
            <g id="left_tab-bar">
                <g id="Group">
                    <g id="icon_left-tab_logo" transform="translate(18.000000, 21.000000)">
                        <path d="M23.881354,0.0340300242 L21.6994925,14.9106944 C21.4981366,16.282739 20.28634,17.3024891 18.8567651,17.3024891 L0.00590992736,17.3024891 L0.0646953995,3.70076513 C0.073516707,1.6556862 1.78774431,0.00317288136 3.89757094,0.0059934798 L23.881354,0.0340300242 Z" id="Fill-1" fill="#33B3FF"></path>
                        <path d="M15.7945511,2.72514247 L13.5395738,4.62158412 C13.4879709,4.66499332 13.4749308,4.73915506 13.5086121,4.797557 L14.6130538,6.71042092 C14.6739312,6.81589308 14.831355,6.79769259 14.8665705,6.68109792 L16.0171409,2.87175748 C16.0571332,2.739403 15.9003719,2.63612746 15.7945511,2.72514247" id="Fill-3" fill="#FFFFFF"></path>
                        <path d="M15.447926,7.95116397 L15.447926,7.95109424 L12.8904093,7.95109424 L11.8942989,6.22577898 C11.8413362,6.13397462 11.7088074,6.13397462 11.6558446,6.22577898 L10.6596994,7.95109424 L10.605342,7.95109424 L9.60923157,6.22577898 C9.556234,6.13397462 9.42374005,6.13397462 9.37074247,6.22577898 L8.37463206,7.95109424 L5.81938169,7.95109424 L5.81938169,7.95116397 L5.81586015,7.95109424 C5.00060397,7.93059254 4.22017976,8.37350586 3.88465627,9.1167969 C3.16667855,10.7074216 4.31072891,12.2532424 5.81586015,12.2532424 C5.81704562,12.2532424 5.81819622,12.2531727 5.81938169,12.2531727 L5.81938169,12.2532424 L15.447926,12.2532424 L15.447926,12.2531727 C16.6345836,12.2515688 17.5960364,11.2892095 17.5960364,10.1021683 C17.5960364,8.91516203 16.6345836,7.95276785 15.447926,7.95116397" id="Fill-5" fill="#FFFFFF"></path>
                        <path d="M12.4770247,10.067162 C12.4770247,10.5209887 12.8449046,10.8888337 13.2987312,10.8888337 C13.7525579,10.8888337 14.1204378,10.5209887 14.1204378,10.067162 C14.1204378,9.61330053 13.7525579,9.2454555 13.2987312,9.2454555 C12.8449046,9.2454555 12.4770247,9.61330053 12.4770247,10.067162" id="Fill-7" fill="#33B3FF"></path>
                        <path d="M7.14461404,10.067162 C7.14461404,10.5209887 7.51249395,10.8888337 7.96632058,10.8888337 C8.42014722,10.8888337 8.78802712,10.5209887 8.78802712,10.067162 C8.78802712,9.61330053 8.42014722,9.2454555 7.96632058,9.2454555 C7.51249395,9.2454555 7.14461404,9.61330053 7.14461404,10.067162" id="Fill-9" fill="#33B3FF"></path>
                        <path d="M9.9123045,10.8991647 L11.4990241,10.8991647 C11.6146425,10.8991647 11.7083297,10.9928868 11.7083297,11.1084703 L11.7083297,11.1547037 C11.7083297,11.2703221 11.6146425,11.3640093 11.4990241,11.3640093 L9.9123045,11.3640093 C9.79672097,11.3640093 9.7030338,11.2703221 9.7030338,11.1547037 L9.7030338,11.1084703 C9.7030338,10.9928868 9.79672097,10.8991647 9.9123045,10.8991647" id="Fill-11" fill="#33B3FF"></path>
                        <mask id="mask-2" fill="white">
                            <use xlink:href="#path-1"></use>
                        </mask>
                        <g id="Clip-14"></g>
                        <polygon id="Fill-13" fill="#33B3FF" mask="url(#mask-2)" points="10.4732281 12.5087884 10.9380726 12.5087884 10.9380726 11.238799 10.4732281 11.238799"></polygon>
                    </g>
                </g>
            </g>
        </g>
    </g>
</svg>