<?xml version="1.0" encoding="UTF-8"?>
<svg width="14px" height="10px" viewBox="0 0 14 10" version="1.1" xmlns="http://www.w3.org/2000/svg" xmlns:xlink="http://www.w3.org/1999/xlink">
    <!-- Generator: Sketch 60 (88103) - https://sketch.com -->
    <title>显示</title>
    <desc>Created with Sketch.</desc>
    <g id="houtai" stroke="none" stroke-width="1" fill="none" fill-rule="evenodd">
        <g id="1-通用列表" transform="translate(-1833.000000, -91.000000)" fill="#999999" fill-rule="nonzero">
            <g id="new" transform="translate(80.000000, 80.000000)">
                <g id="Group-18" transform="translate(1605.000000, 7.000000)">
                    <g id="Group-17" transform="translate(148.000000, 0.000000)">
                        <g id="显示" transform="translate(0.000000, 4.000000)">
                            <path d="M6.92308578,7.28573766 C5.62906385,7.28573766 4.57897248,6.23267153 4.57897248,4.94162435 C4.57897248,3.65057718 5.62906385,2.59751105 6.92308578,2.59751105 C8.21710772,2.59751105 9.26719909,3.64908979 9.26719909,4.94162435 C9.26719909,6.23415891 8.21562034,7.28573766 6.92308578,7.28573766 Z M6.92308578,3.54794785 C6.15410953,3.54794785 5.53089666,4.1726481 5.53089666,4.94013697 C5.53089666,5.70911322 6.15559691,6.33232609 6.92308578,6.33232609 C7.69057466,6.33232609 8.3152749,5.70762584 8.3152749,4.94013697 C8.3152749,4.1726481 7.69057466,3.54794785 6.92308578,3.54794785 L6.92308578,3.54794785 Z" id="Shape"></path>
                            <path d="M6.92011102,1.13541499 C7.68611251,1.13541499 8.43277805,1.28266577 9.14225904,1.57270517 C9.83091669,1.85382028 10.4615665,2.26136282 11.0178472,2.78343374 C11.3792809,3.12255673 11.7050174,3.50630117 11.9846452,3.922768 C12.2003155,4.24404241 12.3892129,4.58614016 12.5483628,4.94311173 C12.3892129,5.3000833 12.2003155,5.64218106 11.9846452,5.96345547 C11.7050174,6.38140968 11.3792809,6.76515412 11.0178472,7.10278973 C10.4600791,7.62486065 9.82942931,8.03091581 9.14225904,8.3135183 C8.43277805,8.6035577 7.6875999,8.75080847 6.92011102,8.75080847 C6.15262215,8.75080847 5.407444,8.6035577 4.697963,8.3135183 C4.00930535,8.03240319 3.37865558,7.62486065 2.82237488,7.10278973 C2.46094117,6.76366674 2.13520461,6.3799223 1.85557688,5.96345547 C1.63990656,5.64218106 1.4510091,5.3000833 1.29185928,4.94311173 C1.4510091,4.58614016 1.63990656,4.24404241 1.85557688,3.922768 C2.13520461,3.50481378 2.46094117,3.12106935 2.82237488,2.78343374 C3.38014296,2.26136282 4.01079273,1.85530766 4.697963,1.57270517 C5.40595662,1.28266577 6.15410953,1.13541499 6.92011102,1.13541499 Z M6.92011102,0.184978191 C5.09955602,0.184978191 3.43666346,0.903383474 2.17238915,2.08733918 C1.34243025,2.86375234 0.685007612,3.83798725 0.264078637,4.94162435 C0.685007612,6.04526145 1.34391763,7.01949636 2.17238915,7.79590952 C3.43815084,8.98135261 5.09955602,9.69827051 6.92011102,9.69827051 C8.74066602,9.69827051 10.4020712,8.97986523 11.6678329,7.79590952 C12.4963044,7.01949636 13.153727,6.04526145 13.5761434,4.94162435 C13.1552144,3.83798725 12.4977918,2.86375234 11.6678329,2.08733918 C10.4020712,0.901896092 8.74066602,0.184978191 6.92011102,0.184978191" id="Shape"></path>
                        </g>
                    </g>
                </g>
            </g>
        </g>
    </g>
</svg>