<?xml version="1.0" encoding="UTF-8"?>
<svg width="60px" height="68px" viewBox="0 0 60 68" version="1.1" xmlns="http://www.w3.org/2000/svg" xmlns:xlink="http://www.w3.org/1999/xlink">
    <!-- Generator: Sketch 54 (76480) - https://sketchapp.com -->
    <title>SHT_SHXQ_ZIP_icon</title>
    <desc>Created with Sketch.</desc>
    <g id="Symbols" stroke="none" stroke-width="1" fill="none" fill-rule="evenodd">
        <g id="sck/ys/style/icon_file" fill="#1E1E1E" fill-rule="nonzero">
            <g id="SHT_SHXQ_ZIP_icon">
                <g id="Group">
                    <path d="M41.3320982,44.0719023 C41.7232641,43.928176 42.0614397,43.6669969 42.2983259,43.3254563 L42.298326,43.3254561 C42.5353166,42.9766387 42.6577883,42.5637034 42.6489724,42.1431925 L42.6489724,42.1431914 C42.668057,41.6420314 42.4929597,41.1526359 42.1596249,40.775475 L42.1596249,40.775475 C41.834064,40.417878 41.3954821,40.1807931 40.9159977,40.1032047 L40.9159981,40.1032047 C40.1778776,40.0130682 39.4339848,39.97794 38.6905673,39.9981142 L37.1944781,39.9981142 L37.1944781,44.3083513 L38.8853731,44.3083513 C40.1056231,44.3083513 40.920679,44.231079 41.3321075,44.0718986 L41.3320982,44.0719023 Z" id="Path"></path>
                    <path d="M58.0618527,32.0375625 L56.2961518,32.0375625 L56.2961518,14.6436406 L56.2961518,14.6436347 C56.2960505,14.5709484 56.2833996,14.4988159 56.2587475,14.4303644 L56.2587475,14.4303643 C56.3425332,14.1987911 56.2842871,13.940071 56.1091379,13.7658237 L42.4168165,0.186011185 L42.4168165,0.186011223 C42.1657915,-0.0623660818 41.759254,-0.0619158474 41.5087875,0.187017583 C41.3881721,0.306895474 41.3206815,0.469482544 41.3212393,0.638825786 L41.3212393,14.2171109 C41.3212393,14.5679265 41.6079904,14.8538327 41.9617533,14.8538327 L55.0135614,14.8538327 L55.0135614,32.0391725 L4.95059263,32.0391725 L4.95059263,1.3806686 L38.4318649,1.3806686 L38.4318649,1.3806686 C38.7860417,1.39798781 39.087316,1.12730352 39.1047823,0.776078207 C39.1222471,0.424852895 38.8492881,0.126089184 38.4951114,0.108768441 C38.4740424,0.107738168 38.452935,0.107738168 38.431866,0.108768439 L4.3085401,0.108768439 L4.30854008,0.108768439 C3.95393338,0.108768455 3.66646775,0.393838518 3.66646775,0.745490822 C3.66646775,0.745490822 3.66646775,0.745490822 3.66646775,0.745490822 L3.66646775,32.0375768 L1.90076686,32.0375768 C0.867528023,32.0375768 0.030655255,32.8674822 0.030655255,33.8921041 L0.030655255,55.6395533 C0.030655255,56.6657291 0.867534719,57.4971752 1.90076686,57.4971752 L3.66646775,57.4971752 L3.66646775,60.9605135 L3.66646749,60.960093 C3.66881134,64.8462332 6.84433133,67.9963664 10.7631416,68.0000187 L55.6552621,68.0000187 L55.6552622,68.0000187 C56.0092602,67.9991667 56.2957776,67.7143457 56.2957762,67.3632964 L56.2957762,57.4987143 L58.0614771,57.4987143 C59.094716,57.4987143 59.933149,56.6672682 59.933149,55.6410925 L59.933149,33.8951706 C59.933149,32.8705421 59.094716,32.039096 58.0614771,32.039096 L58.0618527,32.0375625 Z M42.603817,13.5818711 L42.603817,2.17653125 L54.105,13.5818711 L42.603817,13.5818711 Z M34.102567,37.4311283 L39.0630469,37.4311445 C40.9440737,37.4311445 42.1689978,37.5084168 42.7409397,37.6583243 C43.624567,37.8901405 44.4022232,38.415588 44.9445603,39.1434934 C45.5367629,39.9069395 45.8328616,40.8929329 45.8328616,42.1014669 L45.8328615,42.1014638 C45.8595742,42.9147279 45.6840233,43.7220154 45.3216983,44.4520791 L45.3216983,44.4520792 C45.0156172,45.0481457 44.5692675,45.5623386 44.0204081,45.9511604 C43.5404121,46.2911578 42.9949639,46.5368828 42.4183411,46.669789 C41.3586112,46.8366964 40.283292,46.907787 39.2079795,46.8815147 L37.1929304,46.8815147 L37.1929304,52.6104682 L34.102567,52.6104682 L34.102567,37.4311283 L34.102567,37.4311283 Z M28.0652143,37.4311445 L31.1555759,37.4311445 L31.1555759,52.6181875 L28.0652143,52.6181875 L28.0652143,37.4311445 L28.0652143,37.4311445 Z M13.7619777,49.8596055 L21.8112857,39.9996719 L14.6721563,39.9996719 L14.6721563,37.4311445 L25.8772902,37.4311445 L25.8772902,39.8142191 L17.4867321,50.0605043 L26.198317,50.0605043 L26.198317,52.6182074 L13.7619777,52.6182074 L13.7620446,49.8595922 L13.7619777,49.8596055 Z M55.0136117,66.7265273 L10.7635848,66.7265273 L10.7635849,66.7265273 C7.55460944,66.7231202 4.95407819,64.1442605 4.95064293,60.9620266 L4.95064293,57.4986883 L55.0136117,57.4986883 L55.0136117,66.7265273 L55.0136117,66.7265273 Z" id="Shape"></path>
                </g>
            </g>
        </g>
    </g>
</svg>