<?xml version="1.0" encoding="UTF-8"?>
<svg width="103px" height="33px" viewBox="0 0 103 33" version="1.1" xmlns="http://www.w3.org/2000/svg" xmlns:xlink="http://www.w3.org/1999/xlink">
    <!-- Generator: Sketch 58 (84663) - https://sketch.com -->
    <title>nav bar_logo/style</title>
    <desc>Created with Sketch.</desc>
    <defs>
        <path d="M8.58498278,0.560135593 C7.9000019,0.560135593 7.34525607,1.12139258 7.34525607,1.81441319 L7.34525607,1.81441319 C7.34525607,2.00392854 7.38682044,2.18559414 7.4627447,2.34651397 L7.4627447,2.34651397 C7.47770787,2.3728667 7.49377943,2.40146221 7.50652583,2.43117911 L7.50652583,2.43117911 C7.60073841,2.62349794 7.67832525,2.82871278 7.73596118,3.04458085 L7.73596118,3.04458085 C8.10283605,4.43118278 7.54365668,5.848623 6.44192368,6.62630875 L6.44192368,6.62630875 C6.43305662,6.63135502 6.42308117,6.63640128 6.41532249,6.64481173 L6.41532249,6.64481173 C6.36599943,6.6790142 6.31335122,6.71097389 6.2618114,6.74461567 L6.2618114,6.74461567 C4.70674964,7.77237197 3.41714568,9.07430875 2.42514264,10.5472579 L2.42514264,10.5472579 C-0.491567989,14.8663014 -0.895573699,20.6667045 1.86263812,25.4971031 L1.86263812,25.4971031 C5.69376496,32.2142446 14.1801016,34.5147815 20.8187633,30.6358846 L20.8187633,30.6358846 C27.3953556,26.7934329 29.6880464,18.3291617 25.999901,11.6411764 L25.999901,11.6411764 C25.6895537,11.1085149 25.3592555,10.5921136 25.0128857,10.0942153 L25.0128857,10.0942153 C23.056035,7.28232341 20.5560765,5.03953825 17.7429997,3.42697572 L17.7429997,3.42697572 C14.976475,1.8430087 11.9056991,0.871322034 8.75179446,0.573031608 L8.75179446,0.573031608 C8.72075973,0.567985341 8.68639985,0.564621164 8.65591931,0.562939075 L8.65591931,0.562939075 C8.63153487,0.560135593 8.60825883,0.560135593 8.58498278,0.560135593 Z M12.4033632,13.6462263 C12.4188806,13.64118 12.4349521,13.6355731 12.4476985,13.6305268 L12.4476985,13.6305268 C12.4504695,13.6305268 12.4526863,13.6305268 12.4526863,13.628284 L12.4526863,13.628284 C12.8771971,13.4645607 13.2967201,13.2643921 13.7034968,13.0272176 L13.7034968,13.0272176 C14.3773939,12.6319267 14.9820169,12.1570169 15.5051739,11.6249162 L15.5051739,11.6249162 C15.693599,11.433158 15.8703861,11.2352322 16.0338727,11.0300174 L16.0338727,11.0300174 C16.0394146,11.0244104 16.0427397,11.0165607 16.0499442,11.0109537 L16.0499442,11.0109537 C16.0732203,10.9851617 16.0942796,10.958809 16.1125679,10.934699 L16.1125679,10.934699 C16.1147847,10.9296528 16.1175556,10.9268493 16.1203266,10.9246065 L16.1203266,10.9246065 C16.346991,10.6739753 16.6723015,10.5181017 17.0347428,10.5181017 L17.0347428,10.5181017 C17.1882539,10.5181017 17.3345605,10.5472579 17.4697832,10.5971599 L17.4697832,10.5971599 L17.4847464,10.6055703 C17.5290817,10.6212698 17.5712003,10.6392121 17.6133189,10.663322 L17.6133189,10.663322 C17.6205234,10.6683683 17.6304988,10.6711718 17.6393659,10.6767787 L17.6393659,10.6767787 C19.1257079,11.4090481 20.4208537,12.581464 21.3086688,14.1390783 L21.3086688,14.1390783 C22.2358314,15.7650976 22.5849721,17.5705396 22.4181604,19.307016 L22.4181604,19.307016 L22.4181604,19.3092588 C22.2596616,20.9375208 21.6522676,22.5085918 20.6419762,23.8183784 L20.6419762,23.8183784 C20.6419762,23.8206212 20.6392053,23.8234246 20.6336633,23.8262281 L20.6336633,23.8262281 C20.6031828,23.8738873 20.5666061,23.9209858 20.5272585,23.9658415 L20.5272585,23.9658415 C20.4723936,24.0370499 20.4125409,24.1054549 20.3504714,24.171617 L20.3504714,24.171617 C19.9514534,24.5876537 19.438272,24.9066899 18.8419617,25.0676097 L18.8419617,25.0676097 C17.0945955,25.5419588 15.297352,24.4900925 14.8285059,22.7222171 L14.8285059,22.7222171 C14.5342301,21.6125992 14.8312768,20.4822355 15.5290041,19.6787577 L15.5290041,19.6787577 C15.534546,19.6697865 15.5423047,19.6624975 15.5495092,19.6524049 L15.5495092,19.6524049 C15.7218628,19.438219 15.8232799,19.1645992 15.8232799,18.8674301 L15.8232799,18.8674301 C15.8232799,18.1738488 15.268534,17.6125918 14.582999,17.6125918 L14.582999,17.6125918 C14.3225289,17.6125918 14.0809013,17.6938928 13.8802839,17.8335062 L13.8802839,17.8335062 C13.6791124,17.6938928 13.4374848,17.6125918 13.174798,17.6125918 L13.174798,17.6125918 C12.4892629,17.6125918 11.9345171,18.1738488 11.9345171,18.8674301 L11.9345171,18.8674301 C11.9345171,19.1595529 12.0337174,19.4281264 12.2005291,19.6417517 L12.2005291,19.6417517 C12.2210342,19.6681044 12.2420934,19.6944572 12.2625985,19.7152029 L12.2625985,19.7152029 C12.5701749,20.0790948 12.801827,20.5136344 12.932062,21.0042437 L12.932062,21.0042437 C13.400354,22.7749226 12.3617988,24.5932607 10.6138784,25.0676097 L10.6138784,25.0676097 C9.41349929,25.3916922 8.1920609,25.0020082 7.3895914,24.1503106 L7.3895914,24.1503106 C7.38127852,24.1424608 7.37407403,24.1346111 7.36853212,24.1267613 L7.36853212,24.1267613 C7.27487373,24.0241539 7.18620306,23.9159395 7.10529108,23.8026789 L7.10529108,23.8026789 C7.08700276,23.7785689 7.07203959,23.7550197 7.05375126,23.7314705 L7.05375126,23.7314705 C6.83706233,23.444394 6.63422819,23.1382538 6.45134494,22.8169748 L6.45134494,22.8169748 C5.81624132,21.7045534 5.45435417,20.5136344 5.3396365,19.3148658 L5.3396365,19.3148658 L5.3396365,19.3120623 C5.17282482,17.5598864 5.54025388,15.7970573 6.37874584,14.2657957 L6.37874584,14.2657957 C6.47572937,14.0891764 6.57936321,13.912557 6.69130992,13.740984 L6.69130992,13.740984 C7.402892,12.6291232 8.37937768,11.6697719 9.58973223,10.9610518 L9.58973223,10.9610518 C9.76762775,10.8584443 9.94774003,10.7608832 10.1272981,10.6739753 L10.1272981,10.6739753 C10.1683083,10.650426 10.2126436,10.6291196 10.256979,10.6106166 L10.256979,10.6106166 C10.4005146,10.5500614 10.5595676,10.5181017 10.7236083,10.5181017 L10.7236083,10.5181017 C11.329894,10.5181017 11.8353168,10.958809 11.940059,11.5408117 L11.940059,11.5408117 C11.9500344,11.5884709 11.9577931,11.6361301 11.9605641,11.6826679 L11.9605641,11.6826679 C11.963335,11.7123848 11.963335,11.7437838 11.963335,11.77294 L11.963335,11.77294 C11.963335,11.7936858 11.963335,11.8149922 11.9605641,11.835738 L11.9605641,11.835738 C11.9710937,12.2265433 11.911241,12.6106202 11.7882105,12.9689052 L11.7882105,12.9689052 C11.7832228,12.9851654 11.7754641,12.9986221 11.7738015,13.0165644 L11.7738015,13.0165644 C11.754959,13.0664663 11.7444293,13.1197325 11.7444293,13.1774842 L11.7444293,13.1774842 C11.7444293,13.4539075 11.966106,13.6776253 12.2393225,13.6776253 L12.2393225,13.6776253 C12.2864288,13.6776253 12.3329809,13.6697755 12.3773162,13.6546367 L12.3773162,13.6546367 C12.3789788,13.6546367 12.3806414,13.6551974 12.3823039,13.6551974 L12.3823039,13.6551974 C12.3900626,13.6551974 12.3967129,13.6507119 12.4033632,13.6462263 L12.4033632,13.6462263 Z M11.8430755,28.5753257 C11.8380877,28.5753257 11.8303291,28.5719615 11.8225704,28.5697187 L11.8225704,28.5697187 C11.7605009,28.5534585 11.6923353,28.537759 11.6330368,28.5198168 L11.6330368,28.5198168 C11.6274949,28.5198168 11.621953,28.5170133 11.619182,28.5170133 L11.619182,28.5170133 C11.1431314,28.3431974 10.7995326,27.8795016 10.7995326,27.3361869 L10.7995326,27.3361869 C10.7995326,27.180874 10.8277964,27.0278039 10.8826613,26.890994 L10.8826613,26.890994 C10.9031664,26.8276354 10.9314302,26.7670802 10.9657901,26.7115712 L10.9657901,26.7115712 C10.9707778,26.7014787 10.9757655,26.6908255 10.9840784,26.6796115 L10.9840784,26.6796115 C10.9890661,26.669519 10.9946081,26.6588658 10.9995958,26.651016 L10.9995958,26.651016 C11.4135769,25.8789372 12.1273758,25.275628 13.0307082,25.0306038 L13.0307082,25.0306038 C14.5237004,24.6246596 16.0527152,25.331137 16.7582012,26.651016 L16.7582012,26.651016 C16.7659598,26.663912 16.7742727,26.6773688 16.7814772,26.6930683 L16.7814772,26.6930683 C16.7870191,26.7014787 16.792561,26.7115712 16.7947778,26.719421 L16.7947778,26.719421 C16.8130661,26.7463344 16.8258125,26.7726871 16.8363422,26.8012826 L16.8363422,26.8012826 C16.8518595,26.8304388 16.8651601,26.8595951 16.8729188,26.8881906 L16.8729188,26.8881906 C16.876244,26.890994 16.8779066,26.8960403 16.8806775,26.9016473 L16.8806775,26.9016473 C16.9305548,27.0362144 16.9560476,27.1836775 16.9560476,27.3361869 L16.9560476,27.3361869 C16.9560476,27.8851086 16.610232,28.3510472 16.1258685,28.5220596 L16.1258685,28.5220596 C16.1147847,28.524863 16.1075802,28.5271058 16.0970505,28.53047 L16.0970505,28.53047 C16.0865209,28.5355163 16.0759912,28.537759 16.0626906,28.5405625 L16.0626906,28.5405625 C16.0316559,28.5512158 16.0006212,28.5590655 15.9668155,28.5641118 L15.9668155,28.5641118 C15.2796179,28.7396097 14.5813364,28.8253962 13.8874884,28.8253962 L13.8874884,28.8253962 C13.1964115,28.8253962 12.509768,28.7407311 11.8430755,28.5753257 L11.8430755,28.5753257 Z" id="path-1"></path>
        <path d="M0.532023979,0.620690792 C0.370754211,0.833755383 0.276541631,1.09728264 0.276541631,1.38772332 L0.276541631,1.38772332 C0.276541631,1.41351535 0.278758398,1.43986807 0.284300314,1.4662208 L0.284300314,1.4662208 C0.320876963,1.64059734 0.472171282,1.77180027 0.657271291,1.77180027 L0.657271291,1.77180027 C0.867864116,1.77180027 1.03966353,1.60078791 1.03966353,1.38772332 L1.03966353,1.38772332 C1.03966353,1.11017865 1.26189438,0.886460834 1.53178571,0.886460834 L1.53178571,0.886460834 C1.80555638,0.886460834 2.02667885,1.11017865 2.02667885,1.38772332 L2.02667885,1.38772332 C2.02667885,1.60078791 2.19903245,1.77180027 2.40962527,1.77180027 L2.40962527,1.77180027 C2.59472528,1.77180027 2.74879056,1.64059734 2.78259625,1.4662208 L2.78259625,1.4662208 C2.78813817,1.43986807 2.79035493,1.41351535 2.79035493,1.38772332 L2.79035493,1.38772332 C2.79035493,0.959912048 2.58419564,0.583684837 2.26664383,0.353799359 L2.26664383,0.353799359 L2.26387287,0.353799359 C2.05826777,0.201289968 1.80333961,0.114382043 1.53178571,0.114382043 L1.53178571,0.114382043 C1.12279227,0.114382043 0.758688362,0.312307833 0.532023979,0.620690792" id="path-3"></path>
        <path d="M0.0293721572,1.38772332 C0.0293721572,1.60078791 0.200617376,1.77180027 0.408993434,1.77180027 L0.408993434,1.77180027 C0.620140451,1.77180027 0.792494053,1.60078791 0.792494053,1.38772332 L0.792494053,1.38772332 C0.792494053,1.11017865 1.01361652,0.886460834 1.286833,0.886460834 L1.286833,0.886460834 C1.56115786,0.886460834 1.78228033,1.11017865 1.78228033,1.38772332 L1.78228033,1.38772332 C1.78228033,1.60078791 1.95075459,1.77180027 2.16190161,1.77180027 L2.16190161,1.77180027 C2.37360282,1.77180027 2.54540223,1.60078791 2.54540223,1.38772332 L2.54540223,1.38772332 C2.54540223,0.683488777 1.98012675,0.114382043 1.286833,0.114382043 L1.286833,0.114382043 C0.591322485,0.114382043 0.0293721572,0.683488777 0.0293721572,1.38772332" id="path-5"></path>
        <path d="M2.77372918,0.659378836 L0.551420687,2.90721026 C0.184545818,3.2789519 0.184545818,3.88001832 0.551420687,4.25175996 L0.551420687,4.25175996 C0.918849748,4.62238021 1.51294319,4.62238021 1.87981806,4.25175996 L1.87981806,4.25175996 L4.10157237,2.00336784 C4.46900143,1.6321869 4.46900143,1.03055978 4.10157237,0.659378836 L4.10157237,0.659378836 C3.91813493,0.473227668 3.67761576,0.380712781 3.43765078,0.380712781 L3.43765078,0.380712781 C3.1971316,0.380712781 2.95661243,0.473227668 2.77372918,0.659378836" id="path-7"></path>
        <path d="M2.49219983,1.4662208 L2.49219983,5.8783399 L2.49219983,12.4906312 C2.49219983,15.1404819 2.2622103,18.0841374 0.554191645,19.8262208 L0.554191645,19.8262208 C0.188979351,20.1990838 0.191196118,20.8012716 0.559733562,21.1707705 L0.559733562,21.1707705 C0.743170996,21.3546789 0.982581787,21.4460724 1.22143839,21.4460724 L1.22143839,21.4460724 C1.46251175,21.4460724 1.7046935,21.3518754 1.88813094,21.1651635 L1.88813094,21.1651635 C4.07607955,18.9324709 4.37090951,15.5273623 4.37090951,12.4906312 L4.37090951,12.4906312 L4.37090951,1.4662208 C4.37090951,0.940848374 3.95083224,0.515840586 3.43210886,0.515840586 L3.43210886,0.515840586 C2.91338548,0.515840586 2.49219983,0.940848374 2.49219983,1.4662208" id="path-9"></path>
        <path d="M1.46528271,0.465938617 C0.946005138,0.465938617 0.52537368,0.892067797 0.52537368,1.41631883 L0.52537368,1.41631883 C0.52537368,1.94169125 0.946005138,2.36725973 1.46528271,2.36725973 L1.46528271,2.36725973 L4.09159692,2.36725973 L4.09159692,4.94982684 C2.0566052,5.38829134 0.52537368,7.22064682 0.52537368,9.40792304 L0.52537368,9.40792304 L0.52537368,16.4446615 C0.52537368,16.9689125 0.946005138,17.394481 1.46528271,17.394481 L1.46528271,17.394481 C1.9834519,17.394481 2.40408336,16.9689125 2.40408336,16.4446615 L2.40408336,16.4446615 L2.40408336,9.40792304 C2.40408336,8.27699863 3.10568998,7.31035822 4.09159692,6.92684196 L4.09159692,6.92684196 L4.09159692,20.4956922 C4.09159692,21.0205039 4.51167418,21.4460724 5.03095176,21.4460724 L5.03095176,21.4460724 C5.54967514,21.4460724 5.97030659,21.0205039 5.97030659,20.4956922 L5.97030659,20.4956922 L5.97030659,6.92684196 C6.95565934,7.31035822 7.65782015,8.27699863 7.65782015,9.40792304 L7.65782015,9.40792304 L7.65782015,16.4446615 C7.65782015,16.9689125 8.07789742,17.394481 8.59606661,17.394481 L8.59606661,17.394481 C9.11534418,17.394481 9.53597564,16.9689125 9.53597564,16.4446615 L9.53597564,16.4446615 L9.53597564,9.40792304 C9.53597564,7.22064682 8.00529832,5.38829134 5.97030659,4.94982684 L5.97030659,4.94982684 L5.97030659,2.36725973 L8.59606661,2.36725973 C9.11534418,2.36725973 9.53597564,1.94169125 9.53597564,1.41631883 L9.53597564,1.41631883 C9.53597564,0.892067797 9.11534418,0.465938617 8.59606661,0.465938617 L8.59606661,0.465938617 L1.46528271,0.465938617 Z" id="path-11"></path>
        <path d="M3.13894148,0.439585891 C1.52014768,0.439585891 0.203388334,1.77236097 0.203388334,3.41015483 L0.203388334,3.41015483 L0.203388334,18.5304517 C0.203388334,20.1676848 1.52014768,21.5004599 3.13894148,21.5004599 L3.13894148,21.5004599 L15.67919,21.5004599 C17.2979838,21.5004599 18.6152974,20.1676848 18.6152974,18.5304517 L18.6152974,18.5304517 L18.6152974,3.41015483 C18.6152974,1.77236097 17.2979838,0.439585891 15.67919,0.439585891 L15.67919,0.439585891 L3.13894148,0.439585891 Z M2.08209801,18.5304517 L2.08209801,3.41015483 C2.08209801,2.82030234 2.55593187,2.34090701 3.13894148,2.34090701 L3.13894148,2.34090701 L15.67919,2.34090701 C16.2616454,2.34090701 16.7360335,2.82030234 16.7360335,3.41015483 L16.7360335,3.41015483 L16.7360335,18.5304517 C16.7360335,19.1197435 16.2616454,19.5996995 15.67919,19.5996995 L15.67919,19.5996995 L3.13894148,19.5996995 C2.55593187,19.5996995 2.08209801,19.1197435 2.08209801,18.5304517 L2.08209801,18.5304517 Z" id="path-13"></path>
        <path d="M6.04789342,1.00252497 C6.0429057,1.02271003 5.78354401,2.04934494 5.39616405,3.28063399 L5.39616405,3.28063399 L4.83144276,3.28063399 L3.59116186,1.81104902 C3.30076544,1.46678149 2.80143877,1.43650389 2.47557408,1.74432616 L2.47557408,1.74432616 C2.14970939,2.05214842 2.12144562,2.58032432 2.41239623,2.92515254 L2.41239623,2.92515254 L2.71221391,3.28063399 L1.30401294,3.28063399 C0.866755733,3.28063399 0.512627272,3.65517911 0.512627272,4.11719285 L0.512627272,4.11719285 C0.512627272,4.5792066 0.866755733,4.95375172 1.30401294,4.95375172 L1.30401294,4.95375172 L4.8225757,4.95375172 C4.68735294,5.31147595 4.54603407,5.65630417 4.40249843,5.97141548 L4.40249843,5.97141548 L0.853455134,5.97141548 C0.416752117,5.97141548 0.0631778476,6.3459606 0.0631778476,6.80741365 L0.0631778476,6.80741365 C0.0631778476,7.26998809 0.416752117,7.64397251 0.853455134,7.64397251 L0.853455134,7.64397251 L3.43709658,7.64397251 C2.59195432,8.88255062 1.64927434,9.81218507 0.672234466,10.3622281 L0.672234466,10.3622281 C0.286517081,10.5792176 0.140210486,11.0855263 0.345261395,11.4931525 L0.345261395,11.4931525 C0.487134456,11.7763042 0.760905129,11.937224 1.04409706,11.937224 L1.04409706,11.937224 C1.16934437,11.937224 1.29625426,11.9052643 1.41429708,11.8391022 L1.41429708,11.8391022 C1.94909202,11.5385689 2.47058635,11.1494457 2.97323818,10.681825 L2.97323818,10.681825 C2.95772081,10.807421 2.94885374,10.9358204 2.94885374,11.065902 L2.94885374,11.065902 L2.94885374,13.0905763 C2.94885374,14.6689363 4.12152327,15.9523701 5.56242154,15.9523701 L5.56242154,15.9523701 L8.71078428,15.9523701 C10.2841344,15.9523701 11.6546503,14.8421915 12.1190629,13.1898195 L12.1190629,13.1898195 C12.2432018,12.7468694 12.0054536,12.2814915 11.5870389,12.1497279 L11.5870389,12.1497279 C11.1691784,12.0179643 10.7285961,12.2702776 10.6039029,12.712667 L10.6039029,12.712667 C10.3401077,13.6495905 9.57975678,14.2792524 8.71078428,14.2792524 L8.71078428,14.2792524 L5.56242154,14.2792524 C4.99326672,14.2792524 4.52996251,13.7460302 4.52996251,13.0905763 L4.52996251,13.0905763 L4.52996251,11.065902 C4.52996251,10.4098873 4.99326672,9.87666514 5.56242154,9.87666514 L5.56242154,9.87666514 L7.91163993,9.87666514 C8.22974593,9.87666514 8.48910762,10.183366 8.48910762,10.5595932 L8.48910762,10.5595932 C8.48910762,11.0047861 8.16767647,11.3821347 7.78639262,11.3821347 L7.78639262,11.3821347 L6.61926501,11.3821347 C6.18367038,11.3821347 5.82954192,11.7561191 5.82954192,12.2181328 L5.82954192,12.2181328 C5.82954192,12.6801466 6.18367038,13.054131 6.61926501,13.054131 L6.61926501,13.054131 L7.78639262,13.054131 C9.04607023,13.054131 10.0696622,11.9349812 10.0696622,10.5595932 L10.0696622,10.5595932 C10.0696622,10.428951 10.0596867,10.3016729 10.0408442,10.1766377 L10.0408442,10.1766377 C10.5966984,10.6465011 11.2822335,11.0933761 12.125159,11.4561466 L12.125159,11.4561466 C12.2232509,11.4987595 12.3235596,11.5183839 12.4227599,11.5183839 L12.4227599,11.5183839 C12.735324,11.5183839 13.0307082,11.3215795 13.1554013,10.9969363 L13.1554013,10.9969363 C13.3205504,10.5696858 13.1254749,10.0807586 12.720915,9.90694274 L12.720915,9.90694274 C11.2617284,9.2784022 10.401623,8.36110307 9.91559692,7.64397251 L9.91559692,7.64397251 L12.4233141,7.64397251 C12.8594629,7.64397251 13.2135914,7.26998809 13.2135914,6.80741365 L13.2135914,6.80741365 C13.2135914,6.3459606 12.8594629,5.97141548 12.4233141,5.97141548 L12.4233141,5.97141548 L8.60936721,5.97141548 L8.60160853,5.97141548 L6.13434732,5.97141548 C6.26735332,5.64004398 6.39481739,5.29633715 6.51563117,4.95375172 L6.51563117,4.95375172 L11.9733105,4.95375172 C12.4089051,4.95375172 12.7630336,4.5792066 12.7630336,4.11719285 L12.7630336,4.11719285 C12.7630336,3.65517911 12.4089051,3.28063399 11.9733105,3.28063399 L11.9733105,3.28063399 L10.5922649,3.28063399 L10.8870949,2.89655703 C11.1636365,2.5382721 11.1126509,2.01177829 10.7734856,1.71965552 L10.7734856,1.71965552 C10.4354287,1.42753275 9.93776458,1.48192029 9.66122295,1.84020522 L9.66122295,1.84020522 L8.55283966,3.28063399 L7.05929318,3.28063399 C7.36354439,2.27250206 7.55806566,1.50322675 7.57579979,1.43145763 L7.57579979,1.43145763 C7.6877465,0.985704077 7.43669769,0.528175905 7.01440365,0.408747595 L7.01440365,0.408747595 C6.94679227,0.389683921 6.8786267,0.380712781 6.81156951,0.380712781 L6.81156951,0.380712781 C6.46187458,0.380712781 6.142106,0.627979844 6.04789342,1.00252497 M5.33464878,7.64397251 L8.08122257,7.64397251 C8.16435132,7.82395602 8.27297288,8.03533852 8.41262917,8.26914888 L8.41262917,8.26914888 C8.25246779,8.22709666 8.08454772,8.20410811 7.91163993,8.20410811 L7.91163993,8.20410811 L5.56242154,8.20410811 C5.34905776,8.20410811 5.14123589,8.23326432 4.94228109,8.28653046 L4.94228109,8.28653046 C5.07639547,8.07907284 5.20663051,7.86432616 5.33464878,7.64397251" id="path-15"></path>
        <path d="M5.02651822,1.50995511 L5.02651822,10.5898708 C5.02651822,12.6336088 4.78101132,14.2859808 4.27558854,15.6411837 L4.27558854,15.6411837 C3.59227024,17.475782 2.4545148,18.7395914 0.797481778,19.5055025 L0.797481778,19.5055025 C0.268782948,19.7499661 0.0354682653,20.3813101 0.277095823,20.9167751 L0.277095823,20.9167751 C0.454437149,21.3075804 0.835721001,21.539148 1.23473899,21.539148 L1.23473899,21.539148 C1.38104558,21.539148 1.52956894,21.507749 1.671442,21.4421475 L1.671442,21.4421475 C3.82891008,20.4446688 5.36790028,18.745759 6.24573984,16.391956 L6.24573984,16.391956 C6.84149586,14.7922895 7.1307839,12.8943326 7.1307839,10.5898708 L7.1307839,10.5898708 L7.1307839,1.50995511 C7.1307839,0.9217847 6.659721,0.445192854 6.07892816,0.445192854 L6.07892816,0.445192854 C5.49702693,0.445192854 5.02651822,0.9217847 5.02651822,1.50995511" id="path-17"></path>
        <path d="M0.30646798,1.56041777 L0.30646798,17.1001154 C0.30646798,19.5475547 2.27440251,21.5385873 4.69289485,21.5385873 L4.69289485,21.5385873 C7.30535427,21.5385873 9.43012504,19.3888777 9.43012504,16.7463161 L9.43012504,16.7463161 L9.43012504,15.3798992 C9.43012504,14.7922895 8.95906214,14.3156977 8.37826929,14.3156977 L8.37826929,14.3156977 C7.79692226,14.3156977 7.32585936,14.7922895 7.32585936,15.3798992 L7.32585936,15.3798992 L7.32585936,16.7463161 C7.32585936,18.2147797 6.14487696,19.4096235 4.69289485,19.4096235 L4.69289485,19.4096235 C3.43543401,19.4096235 2.41073366,18.3740174 2.41073366,17.1001154 L2.41073366,17.1001154 L2.41073366,1.56041777 C2.41073366,0.972247366 1.93967076,0.496216216 1.35832372,0.496216216 L1.35832372,0.496216216 C0.777530878,0.496216216 0.30646798,0.972247366 0.30646798,1.56041777" id="path-19"></path>
        <path d="M2.94386602,1.4662208 L2.94386602,3.9282382 L0.553083262,6.07794778 C0.165703302,6.42670087 0.130789228,7.02776729 0.47494224,7.419694 L0.47494224,7.419694 C0.660596441,7.6316372 0.919403939,7.73873019 1.17765725,7.73873019 L1.17765725,7.73873019 C1.3993339,7.73873019 1.62267314,7.65967201 1.80167704,7.49875218 L1.80167704,7.49875218 L4.50724065,5.06589098 C4.70730383,4.88534677 4.82202151,4.62686578 4.82202151,4.35604947 L4.82202151,4.35604947 L4.82202151,1.4662208 C4.82202151,0.940848374 4.40139005,0.515840586 3.88266667,0.515840586 L3.88266667,0.515840586 C3.36394329,0.515840586 2.94386602,0.940848374 2.94386602,1.4662208" id="path-21"></path>
        <path d="M3.25864687,0.462013743 L0.553083262,2.89487494 C0.165703302,3.24362803 0.130789228,3.84469446 0.47494224,4.23662116 L0.47494224,4.23662116 C0.819649443,4.62910857 1.4131887,4.66387174 1.80167704,4.31567934 L1.80167704,4.31567934 L2.94386602,3.28848374 L2.94386602,6.72218781 C2.94386602,10.4513788 1.79724351,11.6860321 0.676113807,12.4026019 L0.676113807,12.4026019 C0.237194024,12.6835108 0.105850604,13.2705598 0.382946427,13.7140705 L0.382946427,13.7140705 C0.561950328,14.0005863 0.866201542,14.1575813 1.17821144,14.1570221 L1.17821144,14.1570221 C1.34945666,14.1570221 1.52347283,14.1099221 1.67864649,14.0101182 L1.67864649,14.0101182 C3.85274032,12.6207128 4.82202151,10.3734421 4.82202151,6.72218781 L4.82202151,6.72218781 L4.82202151,1.17241594 C4.82202151,0.797310124 4.60533257,0.458649565 4.26782986,0.305018781 L4.26782986,0.305018781 C4.14424512,0.248949153 4.0129017,0.221475034 3.88266667,0.221475034 L3.88266667,0.221475034 C3.65711067,0.221475034 3.43377143,0.303897389 3.25864687,0.462013743" id="path-23"></path>
    </defs>
    <g id="Symbols" stroke="none" stroke-width="1" fill="none" fill-rule="evenodd">
        <g id="nav-bar_logo/style-Copy-1">
            <g id="nav-bar_logo/style">
                <g id="logo" transform="translate(0.000000, 0.000785)">
                    <g id="Group-5" transform="translate(3.147017, 8.254695)" fill="#FFFFFF">
                        <path d="M13.7244611,18.6333831 C13.7161482,18.6047875 13.7034018,18.5756313 13.6878844,18.5470358 C13.6773548,18.5178796 13.6646084,18.4915269 13.6457659,18.4646135 C13.6435491,18.4573244 13.6385614,18.4466712 13.6330195,18.4382607 C13.6252608,18.4225612 13.6175021,18.4096652 13.6097434,18.3962085 C12.9042575,17.0763295 11.3746885,16.3698521 9.88225041,16.7757962 C8.97891803,17.0208205 8.264565,17.6241297 7.85058384,18.3962085 C7.84559612,18.404619 7.84060839,18.4147115 7.83506648,18.4253647 C7.82730779,18.4354573 7.82232007,18.4466712 7.81677815,18.4573244 C7.78297246,18.5122727 7.75470869,18.5733885 7.73309521,18.6361865 C7.67878443,18.7735571 7.64996647,18.9260665 7.64996647,19.0819401 C7.64996647,19.6246941 7.99411948,20.0883899 8.47072429,20.2622058 C8.47294106,20.2622058 8.47848298,20.2644486 8.4834707,20.2644486 C8.5433234,20.2829515 8.61093478,20.2992117 8.67411263,20.3149112 C8.68131712,20.3177147 8.68962999,20.3205182 8.69461772,20.3205182 C10.0307738,20.6524504 11.4478418,20.6597394 12.8178036,20.3093043 C12.8516092,20.304258 12.882644,20.2964082 12.9142329,20.285755 C12.9275335,20.2829515 12.937509,20.2807087 12.9480386,20.2756625 C12.9585682,20.272859 12.9663269,20.2700555 12.9763024,20.267252 C13.4606659,20.0962397 13.8075898,19.6297404 13.8075898,19.0819401 C13.8075898,18.92887 13.782097,18.7814069 13.7322198,18.6468398 C13.7294488,18.6417935 13.7266779,18.6361865 13.7244611,18.6333831" id="Fill-1"></path>
                        <path d="M18.1601556,5.88466331 C17.2717864,4.32704902 15.9777489,3.15463307 14.4902985,2.42180302 C14.4819857,2.41619606 14.4720102,2.41395328 14.4636973,2.40890701 C14.422133,2.38479707 14.3805686,2.36685479 14.3367874,2.35059459 L14.3207159,2.34274485 C14.1849389,2.29284288 14.0391865,2.26368667 13.8856754,2.26368667 C13.5237883,2.26368667 13.1979236,2.41899954 12.9718134,2.66963078 C12.9690425,2.67243426 12.9662715,2.67467705 12.9635005,2.67972332 C12.9457664,2.70383326 12.9247071,2.73018598 12.9014311,2.75653871 C12.8931182,2.76158497 12.8909014,2.76943472 12.8853595,2.77504169 C12.721873,2.98025653 12.5439775,3.17818232 12.3566607,3.37050115 C11.8335038,3.90260192 11.2288807,4.37751168 10.5544295,4.77280257 C10.148207,5.0094164 9.72868391,5.21014567 9.30417311,5.37330829 C9.30417311,5.37611177 9.30195634,5.37611177 9.29918538,5.37611177 C9.28588478,5.38115804 9.27036742,5.38620431 9.25485005,5.39181127 C9.24709137,5.39685754 9.23877849,5.4024645 9.22880305,5.39966102 C9.18446771,5.41536051 9.13736142,5.42321026 9.09080933,5.42321026 C8.81703865,5.42321026 8.59536199,5.19893175 8.59536199,4.92250847 C8.59536199,4.86475676 8.60644583,4.81205131 8.62417996,4.76158864 C8.62695092,4.74364636 8.63526379,4.73018965 8.63969733,4.71449015 C8.76217368,4.35564453 8.82202638,3.97156757 8.81205093,3.58132295 C8.81482189,3.56001649 8.81482189,3.53871003 8.81482189,3.51796427 C8.81482189,3.48936876 8.81482189,3.45740907 8.81205093,3.42825286 C8.80927997,3.38115437 8.80152129,3.33349519 8.79099165,3.28583601 C8.68680362,2.70383326 8.18138084,2.26368667 7.57454098,2.26368667 C7.41105445,2.26368667 7.25144725,2.29564636 7.10846581,2.35564086 C7.06468467,2.37414384 7.01979515,2.3954503 6.97823077,2.41899954 C6.79867268,2.50646816 6.61911459,2.60346862 6.44121907,2.70607604 C5.23031032,3.41535685 4.25382465,4.3747082 3.54279676,5.48656894 C3.43085005,5.65814201 3.32610783,5.83420064 3.23023268,6.01138067 C2.39118653,7.54208154 2.02431166,9.30491067 2.19112334,11.0576473 L2.19112334,11.0598901 C2.30584101,12.2592194 2.66772816,13.4501383 3.30283178,14.5625598 C3.48571503,14.8838388 3.68854917,15.1894182 3.90468391,15.4764947 C3.92297223,15.500044 3.9384896,15.5235932 3.95677792,15.5477032 C4.0376899,15.6615245 4.12636057,15.7691782 4.22001896,15.8717856 C4.22500668,15.8796354 4.23276536,15.8880458 4.24107824,15.8953349 C5.04299355,16.7470325 6.26443193,17.1367164 7.46536523,16.812634 C9.21273149,16.3388456 10.2518408,14.5199469 9.78354888,12.749268 C9.65275965,12.2592194 9.42110755,11.8241191 9.11408537,11.4602272 C9.09358028,11.4394814 9.072521,11.4131287 9.05146172,11.386776 C8.88520422,11.1737114 8.78600392,10.9045772 8.78600392,10.6124544 C8.78600392,9.91887311 9.34074976,9.35761612 10.0257306,9.35761612 C10.2889717,9.35761612 10.5305992,9.43947778 10.7317708,9.57909116 C10.931834,9.43947778 11.1745699,9.35761612 11.4344858,9.35761612 C12.1200209,9.35761612 12.6747667,9.91887311 12.6747667,10.6124544 C12.6747667,10.9096235 12.5727954,11.1838039 12.400996,11.3974292 C12.3932373,11.4080825 12.3854787,11.4153715 12.3799367,11.423782 C11.6822095,12.2278204 11.3851627,13.3576235 11.6799927,14.4678021 C12.1482846,16.2356775 13.9460823,17.2869831 15.6934486,16.812634 C16.2897588,16.6517142 16.8029403,16.3332387 17.2019582,15.9166413 C17.2640277,15.8504792 17.3238804,15.7820742 17.3787454,15.7108658 C17.4175388,15.6660101 17.4541154,15.6189116 17.4851502,15.5712524 C17.4906921,15.5684489 17.4934631,15.5662061 17.4934631,15.5639634 C18.5037544,14.2541768 19.1105943,12.6831058 19.2696473,11.0548438 L19.2696473,11.0520403 C19.436459,9.3155639 19.0873182,7.51012185 18.1601556,5.88466331" id="Fill-3"></path>
                        <ellipse id="Oval" stroke="#979797" stroke-width="0.918918919" cx="10.5840708" cy="10.5675676" rx="10.5840708" ry="10.5675676"></ellipse>
                    </g>
                    <g id="Group-8" transform="translate(0.000000, 0.000000)">
                        <mask id="mask-2" fill="white">
                            <use xlink:href="#path-1"></use>
                        </mask>
                        <g id="Clip-7"></g>
                        <path d="M8.58498278,0.560135593 C7.9000019,0.560135593 7.34525607,1.12139258 7.34525607,1.81441319 C7.34525607,2.00392854 7.38682044,2.18559414 7.4627447,2.34651397 C7.47770787,2.3728667 7.49377943,2.40146221 7.50652583,2.43117911 C7.60073841,2.62349794 7.67832525,2.82871278 7.73596118,3.04458085 C8.10283605,4.43118278 7.54365668,5.848623 6.44192368,6.62630875 C6.43305662,6.63135502 6.42308117,6.63640128 6.41532249,6.64481173 C6.36599943,6.6790142 6.31335122,6.71097389 6.2618114,6.74461567 C4.70674964,7.77237197 3.41714568,9.07430875 2.42514264,10.5472579 C-0.491567989,14.8663014 -0.895573699,20.6667045 1.86263812,25.4971031 C5.69376496,32.2142446 14.1801016,34.5147815 20.8187633,30.6358846 C27.3953556,26.7934329 29.6880464,18.3291617 25.999901,11.6411764 C25.6895537,11.1085149 25.3592555,10.5921136 25.0128857,10.0942153 C23.056035,7.28232341 20.5560765,5.03953825 17.7429997,3.42697572 C14.976475,1.8430087 11.9056991,0.871322034 8.75179446,0.573031608 C8.72075973,0.567985341 8.68639985,0.564621164 8.65591931,0.562939075 C8.63153487,0.560135593 8.60825883,0.560135593 8.58498278,0.560135593 Z M12.4476985,13.6305268 C12.4504695,13.6305268 12.4526863,13.6305268 12.4526863,13.628284 C12.8771971,13.4645607 13.2967201,13.2643921 13.7034968,13.0272176 C14.3773939,12.6319267 14.9820169,12.1570169 15.5051739,11.6249162 C15.693599,11.433158 15.8703861,11.2352322 16.0338727,11.0300174 C16.0394146,11.0244104 16.0427397,11.0165607 16.0499442,11.0109537 C16.0732203,10.9851617 16.0942796,10.958809 16.1125679,10.934699 C16.1147847,10.9296528 16.1175556,10.9268493 16.1203266,10.9246065 C16.346991,10.6739753 16.6723015,10.5181017 17.0347428,10.5181017 C17.1882539,10.5181017 17.3345605,10.5472579 17.4697832,10.5971599 L17.4847464,10.6055703 C17.5290817,10.6212698 17.5712003,10.6392121 17.6133189,10.663322 C17.6205234,10.6683683 17.6304988,10.6711718 17.6393659,10.6767787 C19.1257079,11.4090481 20.4208537,12.581464 21.3086688,14.1390783 C22.2358314,15.7650976 22.5849721,17.5705396 22.4181604,19.307016 L22.4181604,19.3092588 C22.2596616,20.9375208 21.6522676,22.5085918 20.6419762,23.8183784 C20.6419762,23.8206212 20.6392053,23.8234246 20.6336633,23.8262281 C20.6031828,23.8738873 20.5666061,23.9209858 20.5272585,23.9658415 C20.4723936,24.0370499 20.4125409,24.1054549 20.3504714,24.171617 C19.9514534,24.5876537 19.438272,24.9066899 18.8419617,25.0676097 C17.0945955,25.5419588 15.297352,24.4900925 14.8285059,22.7222171 C14.5342301,21.6125992 14.8312768,20.4822355 15.5290041,19.6787577 C15.534546,19.6697865 15.5423047,19.6624975 15.5495092,19.6524049 C15.7218628,19.438219 15.8232799,19.1645992 15.8232799,18.8674301 C15.8232799,18.1738488 15.268534,17.6125918 14.582999,17.6125918 C14.3225289,17.6125918 14.0809013,17.6938928 13.8802839,17.8335062 C13.6791124,17.6938928 13.4374848,17.6125918 13.174798,17.6125918 C12.4892629,17.6125918 11.9345171,18.1738488 11.9345171,18.8674301 C11.9345171,19.1595529 12.0337174,19.4281264 12.2005291,19.6417517 C12.2210342,19.6681044 12.2420934,19.6944572 12.2625985,19.7152029 C12.5701749,20.0790948 12.801827,20.5136344 12.932062,21.0042437 C13.400354,22.7749226 12.3617988,24.5932607 10.6138784,25.0676097 C9.41349929,25.3916922 8.1920609,25.0020082 7.3895914,24.1503106 C7.38127852,24.1424608 7.37407403,24.1346111 7.36853212,24.1267613 C7.27487373,24.0241539 7.18620306,23.9159395 7.10529108,23.8026789 C7.08700276,23.7785689 7.07203959,23.7550197 7.05375126,23.7314705 C6.83706233,23.444394 6.63422819,23.1382538 6.45134494,22.8169748 C5.81624132,21.7045534 5.45435417,20.5136344 5.3396365,19.3148658 C5.17282482,17.5598864 5.54025388,15.7970573 6.37874584,14.2657957 C6.47572937,14.0891764 6.57936321,13.912557 6.69130992,13.740984 C7.402892,12.6291232 8.37937768,11.6697719 9.58973223,10.9610518 C9.76762775,10.8584443 9.94774003,10.7608832 10.1272981,10.6739753 C10.1683083,10.650426 10.2126436,10.6291196 10.256979,10.6106166 C10.4005146,10.5500614 10.5595676,10.5181017 10.7236083,10.5181017 C11.329894,10.5181017 11.8353168,10.958809 11.940059,11.5408117 C11.9500344,11.5884709 11.9577931,11.6361301 11.9605641,11.6826679 C11.963335,11.7123848 11.963335,11.7437838 11.963335,11.77294 C11.963335,11.7936858 11.963335,11.8149922 11.9605641,11.835738 C11.9710937,12.2265433 11.911241,12.6106202 11.7882105,12.9689052 C11.7832228,12.9851654 11.7754641,12.9986221 11.7738015,13.0165644 C11.754959,13.0664663 11.7444293,13.1197325 11.7444293,13.1774842 C11.7444293,13.4539075 11.966106,13.6776253 12.2393225,13.6776253 C12.2864288,13.6776253 12.3329809,13.6697755 12.3773162,13.6546367 C12.3900626,13.6551974 12.3967129,13.6507119 12.4033632,13.6462263 C12.4188806,13.64118 12.4349521,13.6355731 12.4476985,13.6305268 Z M11.8225704,28.5697187 C11.7605009,28.5534585 11.6923353,28.537759 11.6330368,28.5198168 C11.6274949,28.5198168 11.621953,28.5170133 11.619182,28.5170133 C11.1431314,28.3431974 10.7995326,27.8795016 10.7995326,27.3361869 C10.7995326,27.180874 10.8277964,27.0278039 10.8826613,26.890994 C10.9031664,26.8276354 10.9314302,26.7670802 10.9657901,26.7115712 C10.9707778,26.7014787 10.9757655,26.6908255 10.9840784,26.6796115 C10.9890661,26.669519 10.9946081,26.6588658 10.9995958,26.651016 C11.4135769,25.8789372 12.1273758,25.275628 13.0307082,25.0306038 C14.5237004,24.6246596 16.0527152,25.331137 16.7582012,26.651016 C16.7659598,26.663912 16.7742727,26.6773688 16.7814772,26.6930683 C16.7870191,26.7014787 16.792561,26.7115712 16.7947778,26.719421 C16.8130661,26.7463344 16.8258125,26.7726871 16.8363422,26.8012826 C16.8518595,26.8304388 16.8651601,26.8595951 16.8729188,26.8881906 C16.876244,26.890994 16.8779066,26.8960403 16.8806775,26.9016473 C16.9305548,27.0362144 16.9560476,27.1836775 16.9560476,27.3361869 C16.9560476,27.8851086 16.610232,28.3510472 16.1258685,28.5220596 C16.1147847,28.524863 16.1075802,28.5271058 16.0970505,28.53047 C16.0865209,28.5355163 16.0759912,28.537759 16.0626906,28.5405625 C16.0316559,28.5512158 16.0006212,28.5590655 15.9668155,28.5641118 C15.2796179,28.7396097 14.5813364,28.8253962 13.8874884,28.8253962 C13.1964115,28.8253962 12.509768,28.7407311 11.8430755,28.5753257 C11.8380877,28.5753257 11.8303291,28.5719615 11.8225704,28.5697187 Z" id="Fill-6" fill="#FF5121" mask="url(#mask-2)"></path>
                    </g>
                    <g id="Group-11" transform="translate(7.758683, 14.578104)">
                        <mask id="mask-4" fill="white">
                            <use xlink:href="#path-3"></use>
                        </mask>
                        <g id="Clip-10"></g>
                        <path d="M0.532023979,0.620690792 C0.370754211,0.833755383 0.276541631,1.09728264 0.276541631,1.38772332 L0.276541631,1.38772332 C0.276541631,1.41351535 0.278758398,1.43986807 0.284300314,1.4662208 L0.284300314,1.4662208 C0.320876963,1.64059734 0.472171282,1.77180027 0.657271291,1.77180027 L0.657271291,1.77180027 C0.867864116,1.77180027 1.03966353,1.60078791 1.03966353,1.38772332 L1.03966353,1.38772332 C1.03966353,1.11017865 1.26189438,0.886460834 1.53178571,0.886460834 L1.53178571,0.886460834 C1.80555638,0.886460834 2.02667885,1.11017865 2.02667885,1.38772332 L2.02667885,1.38772332 C2.02667885,1.60078791 2.19903245,1.77180027 2.40962527,1.77180027 L2.40962527,1.77180027 C2.59472528,1.77180027 2.74879056,1.64059734 2.78259625,1.4662208 L2.78259625,1.4662208 C2.78813817,1.43986807 2.79035493,1.41351535 2.79035493,1.38772332 L2.79035493,1.38772332 C2.79035493,0.959912048 2.58419564,0.583684837 2.26664383,0.353799359 L2.26664383,0.353799359 L2.26387287,0.353799359 C2.05826777,0.201289968 1.80333961,0.114382043 1.53178571,0.114382043 L1.53178571,0.114382043 C1.12279227,0.114382043 0.758688362,0.312307833 0.532023979,0.620690792" id="Fill-9" fill="#FF5121" mask="url(#mask-4)"></path>
                    </g>
                    <g id="Group-14" transform="translate(17.179941, 14.578104)">
                        <mask id="mask-6" fill="white">
                            <use xlink:href="#path-5"></use>
                        </mask>
                        <g id="Clip-13"></g>
                        <path d="M0.0293721572,1.38772332 C0.0293721572,1.60078791 0.200617376,1.77180027 0.408993434,1.77180027 L0.408993434,1.77180027 C0.620140451,1.77180027 0.792494053,1.60078791 0.792494053,1.38772332 L0.792494053,1.38772332 C0.792494053,1.11017865 1.01361652,0.886460834 1.286833,0.886460834 L1.286833,0.886460834 C1.56115786,0.886460834 1.78228033,1.11017865 1.78228033,1.38772332 L1.78228033,1.38772332 C1.78228033,1.60078791 1.95075459,1.77180027 2.16190161,1.77180027 L2.16190161,1.77180027 C2.37360282,1.77180027 2.54540223,1.60078791 2.54540223,1.38772332 L2.54540223,1.38772332 C2.54540223,0.683488777 1.98012675,0.114382043 1.286833,0.114382043 L1.286833,0.114382043 C0.591322485,0.114382043 0.0293721572,0.683488777 0.0293721572,1.38772332" id="Fill-12" fill="#FF5121" mask="url(#mask-6)"></path>
                    </g>
                </g>
                <g id="Group-17" transform="translate(41.010182, 11.214711)">
                    <mask id="mask-8" fill="white">
                        <use xlink:href="#path-7"></use>
                    </mask>
                    <g id="Clip-16"></g>
                    <path d="M2.77372918,0.659378836 L0.551420687,2.90721026 C0.184545818,3.2789519 0.184545818,3.88001832 0.551420687,4.25175996 L0.551420687,4.25175996 C0.918849748,4.62238021 1.51294319,4.62238021 1.87981806,4.25175996 L1.87981806,4.25175996 L4.10157237,2.00336784 C4.46900143,1.6321869 4.46900143,1.03055978 4.10157237,0.659378836 L4.10157237,0.659378836 C3.91813493,0.473227668 3.67761576,0.380712781 3.43765078,0.380712781 L3.43765078,0.380712781 C3.1971316,0.380712781 2.95661243,0.473227668 2.77372918,0.659378836" id="Fill-15" fill="#FF5121" mask="url(#mask-8)"></path>
                </g>
                <g id="Group-20" transform="translate(41.010182, 8.411229)">
                    <mask id="mask-10" fill="white">
                        <use xlink:href="#path-9"></use>
                    </mask>
                    <g id="Clip-19"></g>
                    <path d="M2.49219983,1.4662208 L2.49219983,5.8783399 L2.49219983,12.4906312 C2.49219983,15.1404819 2.2622103,18.0841374 0.554191645,19.8262208 L0.554191645,19.8262208 C0.188979351,20.1990838 0.191196118,20.8012716 0.559733562,21.1707705 L0.559733562,21.1707705 C0.743170996,21.3546789 0.982581787,21.4460724 1.22143839,21.4460724 L1.22143839,21.4460724 C1.46251175,21.4460724 1.7046935,21.3518754 1.88813094,21.1651635 L1.88813094,21.1651635 C4.07607955,18.9324709 4.37090951,15.5273623 4.37090951,12.4906312 L4.37090951,12.4906312 L4.37090951,1.4662208 C4.37090951,0.940848374 3.95083224,0.515840586 3.43210886,0.515840586 L3.43210886,0.515840586 C2.91338548,0.515840586 2.49219983,0.940848374 2.49219983,1.4662208" id="Fill-18" fill="#FF5121" mask="url(#mask-10)"></path>
                </g>
                <g id="Group-23" transform="translate(45.997907, 8.411229)">
                    <mask id="mask-12" fill="white">
                        <use xlink:href="#path-11"></use>
                    </mask>
                    <g id="Clip-22"></g>
                    <path d="M1.46528271,0.465938617 C0.946005138,0.465938617 0.52537368,0.892067797 0.52537368,1.41631883 L0.52537368,1.41631883 C0.52537368,1.94169125 0.946005138,2.36725973 1.46528271,2.36725973 L1.46528271,2.36725973 L4.09159692,2.36725973 L4.09159692,4.94982684 C2.0566052,5.38829134 0.52537368,7.22064682 0.52537368,9.40792304 L0.52537368,9.40792304 L0.52537368,16.4446615 C0.52537368,16.9689125 0.946005138,17.394481 1.46528271,17.394481 L1.46528271,17.394481 C1.9834519,17.394481 2.40408336,16.9689125 2.40408336,16.4446615 L2.40408336,16.4446615 L2.40408336,9.40792304 C2.40408336,8.27699863 3.10568998,7.31035822 4.09159692,6.92684196 L4.09159692,6.92684196 L4.09159692,20.4956922 C4.09159692,21.0205039 4.51167418,21.4460724 5.03095176,21.4460724 L5.03095176,21.4460724 C5.54967514,21.4460724 5.97030659,21.0205039 5.97030659,20.4956922 L5.97030659,20.4956922 L5.97030659,6.92684196 C6.95565934,7.31035822 7.65782015,8.27699863 7.65782015,9.40792304 L7.65782015,9.40792304 L7.65782015,16.4446615 C7.65782015,16.9689125 8.07789742,17.394481 8.59606661,17.394481 L8.59606661,17.394481 C9.11534418,17.394481 9.53597564,16.9689125 9.53597564,16.4446615 L9.53597564,16.4446615 L9.53597564,9.40792304 C9.53597564,7.22064682 8.00529832,5.38829134 5.97030659,4.94982684 L5.97030659,4.94982684 L5.97030659,2.36725973 L8.59606661,2.36725973 C9.11534418,2.36725973 9.53597564,1.94169125 9.53597564,1.41631883 L9.53597564,1.41631883 C9.53597564,0.892067797 9.11534418,0.465938617 8.59606661,0.465938617 L8.59606661,0.465938617 L1.46528271,0.465938617 Z" id="Fill-21" fill="#FF5121" mask="url(#mask-12)"></path>
                </g>
                <g id="Group-26" transform="translate(60.961081, 8.411229)">
                    <mask id="mask-14" fill="white">
                        <use xlink:href="#path-13"></use>
                    </mask>
                    <g id="Clip-25"></g>
                    <path d="M3.13894148,0.439585891 C1.52014768,0.439585891 0.203388334,1.77236097 0.203388334,3.41015483 L0.203388334,3.41015483 L0.203388334,18.5304517 C0.203388334,20.1676848 1.52014768,21.5004599 3.13894148,21.5004599 L3.13894148,21.5004599 L15.67919,21.5004599 C17.2979838,21.5004599 18.6152974,20.1676848 18.6152974,18.5304517 L18.6152974,18.5304517 L18.6152974,3.41015483 C18.6152974,1.77236097 17.2979838,0.439585891 15.67919,0.439585891 L15.67919,0.439585891 L3.13894148,0.439585891 Z M2.08209801,18.5304517 L2.08209801,3.41015483 C2.08209801,2.82030234 2.55593187,2.34090701 3.13894148,2.34090701 L3.13894148,2.34090701 L15.67919,2.34090701 C16.2616454,2.34090701 16.7360335,2.82030234 16.7360335,3.41015483 L16.7360335,3.41015483 L16.7360335,18.5304517 C16.7360335,19.1197435 16.2616454,19.5996995 15.67919,19.5996995 L15.67919,19.5996995 L3.13894148,19.5996995 C2.55593187,19.5996995 2.08209801,19.1197435 2.08209801,18.5304517 L2.08209801,18.5304517 Z" id="Fill-24" fill="#FF5121" mask="url(#mask-14)"></path>
                </g>
                <g id="Group-29" transform="translate(63.732039, 11.214711)">
                    <mask id="mask-16" fill="white">
                        <use xlink:href="#path-15"></use>
                    </mask>
                    <g id="Clip-28"></g>
                    <path d="M6.04789342,1.00252497 C6.0429057,1.02271003 5.78354401,2.04934494 5.39616405,3.28063399 L5.39616405,3.28063399 L4.83144276,3.28063399 L3.59116186,1.81104902 C3.30076544,1.46678149 2.80143877,1.43650389 2.47557408,1.74432616 L2.47557408,1.74432616 C2.14970939,2.05214842 2.12144562,2.58032432 2.41239623,2.92515254 L2.41239623,2.92515254 L2.71221391,3.28063399 L1.30401294,3.28063399 C0.866755733,3.28063399 0.512627272,3.65517911 0.512627272,4.11719285 L0.512627272,4.11719285 C0.512627272,4.5792066 0.866755733,4.95375172 1.30401294,4.95375172 L1.30401294,4.95375172 L4.8225757,4.95375172 C4.68735294,5.31147595 4.54603407,5.65630417 4.40249843,5.97141548 L4.40249843,5.97141548 L0.853455134,5.97141548 C0.416752117,5.97141548 0.0631778476,6.3459606 0.0631778476,6.80741365 L0.0631778476,6.80741365 C0.0631778476,7.26998809 0.416752117,7.64397251 0.853455134,7.64397251 L0.853455134,7.64397251 L3.43709658,7.64397251 C2.59195432,8.88255062 1.64927434,9.81218507 0.672234466,10.3622281 L0.672234466,10.3622281 C0.286517081,10.5792176 0.140210486,11.0855263 0.345261395,11.4931525 L0.345261395,11.4931525 C0.487134456,11.7763042 0.760905129,11.937224 1.04409706,11.937224 L1.04409706,11.937224 C1.16934437,11.937224 1.29625426,11.9052643 1.41429708,11.8391022 L1.41429708,11.8391022 C1.94909202,11.5385689 2.47058635,11.1494457 2.97323818,10.681825 L2.97323818,10.681825 C2.95772081,10.807421 2.94885374,10.9358204 2.94885374,11.065902 L2.94885374,11.065902 L2.94885374,13.0905763 C2.94885374,14.6689363 4.12152327,15.9523701 5.56242154,15.9523701 L5.56242154,15.9523701 L8.71078428,15.9523701 C10.2841344,15.9523701 11.6546503,14.8421915 12.1190629,13.1898195 L12.1190629,13.1898195 C12.2432018,12.7468694 12.0054536,12.2814915 11.5870389,12.1497279 L11.5870389,12.1497279 C11.1691784,12.0179643 10.7285961,12.2702776 10.6039029,12.712667 L10.6039029,12.712667 C10.3401077,13.6495905 9.57975678,14.2792524 8.71078428,14.2792524 L8.71078428,14.2792524 L5.56242154,14.2792524 C4.99326672,14.2792524 4.52996251,13.7460302 4.52996251,13.0905763 L4.52996251,13.0905763 L4.52996251,11.065902 C4.52996251,10.4098873 4.99326672,9.87666514 5.56242154,9.87666514 L5.56242154,9.87666514 L7.91163993,9.87666514 C8.22974593,9.87666514 8.48910762,10.183366 8.48910762,10.5595932 L8.48910762,10.5595932 C8.48910762,11.0047861 8.16767647,11.3821347 7.78639262,11.3821347 L7.78639262,11.3821347 L6.61926501,11.3821347 C6.18367038,11.3821347 5.82954192,11.7561191 5.82954192,12.2181328 L5.82954192,12.2181328 C5.82954192,12.6801466 6.18367038,13.054131 6.61926501,13.054131 L6.61926501,13.054131 L7.78639262,13.054131 C9.04607023,13.054131 10.0696622,11.9349812 10.0696622,10.5595932 L10.0696622,10.5595932 C10.0696622,10.428951 10.0596867,10.3016729 10.0408442,10.1766377 L10.0408442,10.1766377 C10.5966984,10.6465011 11.2822335,11.0933761 12.125159,11.4561466 L12.125159,11.4561466 C12.2232509,11.4987595 12.3235596,11.5183839 12.4227599,11.5183839 L12.4227599,11.5183839 C12.735324,11.5183839 13.0307082,11.3215795 13.1554013,10.9969363 L13.1554013,10.9969363 C13.3205504,10.5696858 13.1254749,10.0807586 12.720915,9.90694274 L12.720915,9.90694274 C11.2617284,9.2784022 10.401623,8.36110307 9.91559692,7.64397251 L9.91559692,7.64397251 L12.4233141,7.64397251 C12.8594629,7.64397251 13.2135914,7.26998809 13.2135914,6.80741365 L13.2135914,6.80741365 C13.2135914,6.3459606 12.8594629,5.97141548 12.4233141,5.97141548 L12.4233141,5.97141548 L8.60936721,5.97141548 L8.60160853,5.97141548 L6.13434732,5.97141548 C6.26735332,5.64004398 6.39481739,5.29633715 6.51563117,4.95375172 L6.51563117,4.95375172 L11.9733105,4.95375172 C12.4089051,4.95375172 12.7630336,4.5792066 12.7630336,4.11719285 L12.7630336,4.11719285 C12.7630336,3.65517911 12.4089051,3.28063399 11.9733105,3.28063399 L11.9733105,3.28063399 L10.5922649,3.28063399 L10.8870949,2.89655703 C11.1636365,2.5382721 11.1126509,2.01177829 10.7734856,1.71965552 L10.7734856,1.71965552 C10.4354287,1.42753275 9.93776458,1.48192029 9.66122295,1.84020522 L9.66122295,1.84020522 L8.55283966,3.28063399 L7.05929318,3.28063399 C7.36354439,2.27250206 7.55806566,1.50322675 7.57579979,1.43145763 L7.57579979,1.43145763 C7.6877465,0.985704077 7.43669769,0.528175905 7.01440365,0.408747595 L7.01440365,0.408747595 C6.94679227,0.389683921 6.8786267,0.380712781 6.81156951,0.380712781 L6.81156951,0.380712781 C6.46187458,0.380712781 6.142106,0.627979844 6.04789342,1.00252497 M5.33464878,7.64397251 L8.08122257,7.64397251 C8.16435132,7.82395602 8.27297288,8.03533852 8.41262917,8.26914888 L8.41262917,8.26914888 C8.25246779,8.22709666 8.08454772,8.20410811 7.91163993,8.20410811 L7.91163993,8.20410811 L5.56242154,8.20410811 C5.34905776,8.20410811 5.14123589,8.23326432 4.94228109,8.28653046 L4.94228109,8.28653046 C5.07639547,8.07907284 5.20663051,7.86432616 5.33464878,7.64397251" id="Fill-27" fill="#FF5121" mask="url(#mask-16)"></path>
                </g>
                <g id="Group-32" transform="translate(81.466172, 8.411229)">
                    <mask id="mask-18" fill="white">
                        <use xlink:href="#path-17"></use>
                    </mask>
                    <g id="Clip-31"></g>
                    <path d="M5.02651822,1.50995511 L5.02651822,10.5898708 C5.02651822,12.6336088 4.78101132,14.2859808 4.27558854,15.6411837 L4.27558854,15.6411837 C3.59227024,17.475782 2.4545148,18.7395914 0.797481778,19.5055025 L0.797481778,19.5055025 C0.268782948,19.7499661 0.0354682653,20.3813101 0.277095823,20.9167751 L0.277095823,20.9167751 C0.454437149,21.3075804 0.835721001,21.539148 1.23473899,21.539148 L1.23473899,21.539148 C1.38104558,21.539148 1.52956894,21.507749 1.671442,21.4421475 L1.671442,21.4421475 C3.82891008,20.4446688 5.36790028,18.745759 6.24573984,16.391956 L6.24573984,16.391956 C6.84149586,14.7922895 7.1307839,12.8943326 7.1307839,10.5898708 L7.1307839,10.5898708 L7.1307839,1.50995511 C7.1307839,0.9217847 6.659721,0.445192854 6.07892816,0.445192854 L6.07892816,0.445192854 C5.49702693,0.445192854 5.02651822,0.9217847 5.02651822,1.50995511" id="Fill-30" fill="#FF5121" mask="url(#mask-18)"></path>
                </g>
                <g id="Group-35" transform="translate(93.104196, 8.411229)">
                    <mask id="mask-20" fill="white">
                        <use xlink:href="#path-19"></use>
                    </mask>
                    <g id="Clip-34"></g>
                    <path d="M0.30646798,1.56041777 L0.30646798,17.1001154 C0.30646798,19.5475547 2.27440251,21.5385873 4.69289485,21.5385873 L4.69289485,21.5385873 C7.30535427,21.5385873 9.43012504,19.3888777 9.43012504,16.7463161 L9.43012504,16.7463161 L9.43012504,15.3798992 C9.43012504,14.7922895 8.95906214,14.3156977 8.37826929,14.3156977 L8.37826929,14.3156977 C7.79692226,14.3156977 7.32585936,14.7922895 7.32585936,15.3798992 L7.32585936,15.3798992 L7.32585936,16.7463161 C7.32585936,18.2147797 6.14487696,19.4096235 4.69289485,19.4096235 L4.69289485,19.4096235 C3.43543401,19.4096235 2.41073366,18.3740174 2.41073366,17.1001154 L2.41073366,17.1001154 L2.41073366,1.56041777 C2.41073366,0.972247366 1.93967076,0.496216216 1.35832372,0.496216216 L1.35832372,0.496216216 C0.777530878,0.496216216 0.30646798,0.972247366 0.30646798,1.56041777" id="Fill-33" fill="#FF5121" mask="url(#mask-20)"></path>
                </g>
                <g id="Group-38" transform="translate(36.022457, 8.411229)">
                    <mask id="mask-22" fill="white">
                        <use xlink:href="#path-21"></use>
                    </mask>
                    <g id="Clip-37"></g>
                    <path d="M2.94386602,1.4662208 L2.94386602,3.9282382 L0.553083262,6.07794778 C0.165703302,6.42670087 0.130789228,7.02776729 0.47494224,7.419694 L0.47494224,7.419694 C0.660596441,7.6316372 0.919403939,7.73873019 1.17765725,7.73873019 L1.17765725,7.73873019 C1.3993339,7.73873019 1.62267314,7.65967201 1.80167704,7.49875218 L1.80167704,7.49875218 L4.50724065,5.06589098 C4.70730383,4.88534677 4.82202151,4.62686578 4.82202151,4.35604947 L4.82202151,4.35604947 L4.82202151,1.4662208 C4.82202151,0.940848374 4.40139005,0.515840586 3.88266667,0.515840586 L3.88266667,0.515840586 C3.36394329,0.515840586 2.94386602,0.940848374 2.94386602,1.4662208" id="Fill-36" fill="#FF5121" mask="url(#mask-22)"></path>
                </g>
                <g id="Group-41" transform="translate(36.022457, 15.700281)">
                    <mask id="mask-24" fill="white">
                        <use xlink:href="#path-23"></use>
                    </mask>
                    <g id="Clip-40"></g>
                    <path d="M3.25864687,0.462013743 L0.553083262,2.89487494 C0.165703302,3.24362803 0.130789228,3.84469446 0.47494224,4.23662116 L0.47494224,4.23662116 C0.819649443,4.62910857 1.4131887,4.66387174 1.80167704,4.31567934 L1.80167704,4.31567934 L2.94386602,3.28848374 L2.94386602,6.72218781 C2.94386602,10.4513788 1.79724351,11.6860321 0.676113807,12.4026019 L0.676113807,12.4026019 C0.237194024,12.6835108 0.105850604,13.2705598 0.382946427,13.7140705 L0.382946427,13.7140705 C0.561950328,14.0005863 0.866201542,14.1575813 1.17821144,14.1570221 L1.17821144,14.1570221 C1.34945666,14.1570221 1.52347283,14.1099221 1.67864649,14.0101182 L1.67864649,14.0101182 C3.85274032,12.6207128 4.82202151,10.3734421 4.82202151,6.72218781 L4.82202151,6.72218781 L4.82202151,1.17241594 C4.82202151,0.797310124 4.60533257,0.458649565 4.26782986,0.305018781 L4.26782986,0.305018781 C4.14424512,0.248949153 4.0129017,0.221475034 3.88266667,0.221475034 L3.88266667,0.221475034 C3.65711067,0.221475034 3.43377143,0.303897389 3.25864687,0.462013743" id="Fill-39" fill="#FF5121" mask="url(#mask-24)"></path>
                </g>
            </g>
        </g>
    </g>
</svg>